<svg width="40" height="32" viewBox="0 0 40 32" fill="none" xmlns="http://www.w3.org/2000/svg">
<path fill-rule="evenodd" clip-rule="evenodd" d="M31.9106 0C35.992 0 39.3127 3.28777 39.3127 7.32709L39.3145 12.0704C39.3145 12.4325 39.1701 12.7835 38.9122 13.0395C38.6562 13.2974 38.307 13.4418 37.9431 13.4418C36.504 13.4418 35.3337 14.5902 35.3337 16.0018C35.3337 17.4135 36.504 18.5618 37.9431 18.5618C38.7001 18.5618 39.3145 19.1762 39.3145 19.9333V24.6729C39.3145 28.7122 35.9938 32 31.9125 32H7.4023C3.32093 32 0.000244141 28.7122 0.000244141 24.6729V19.9333C0.000244141 19.1762 0.614644 18.5618 1.37167 18.5618C2.81076 18.5618 3.98104 17.4135 3.98104 16.0018C3.98104 14.6304 2.8583 13.5954 1.37167 13.5954C1.00779 13.5954 0.65853 13.451 0.40253 13.1931C0.144701 12.9371 0.000244141 12.5861 0.000244141 12.224L0.00207271 7.32709C0.00207271 3.28777 3.32276 0 7.40413 0H31.9106ZM31.9106 2.74286H24.4098L24.4109 6.25591C24.4109 7.01294 23.7965 7.62734 23.0395 7.62734C22.2825 7.62734 21.6681 7.01294 21.6681 6.25591L21.667 2.74286H7.40413C4.83499 2.74286 2.74493 4.8 2.74493 7.32709L2.7431 11.0171C5.0599 11.5858 6.7239 13.5717 6.7239 16.0018C6.7239 18.4558 5.03064 20.5257 2.7431 21.1273V24.6729C2.7431 27.2 4.83316 29.2571 7.4023 29.2571H21.667L21.6681 26.5353C21.6681 25.7765 22.2825 25.1639 23.0395 25.1639C23.7965 25.1639 24.4109 25.7765 24.4109 26.5353L24.4098 29.2571H31.9125C34.4816 29.2571 36.5717 27.2 36.5717 24.6729V21.1273C34.2841 20.5257 32.5909 18.4558 32.5909 16.0018C32.5909 13.5461 34.2823 11.4779 36.5717 10.8763L36.5698 7.32709C36.5698 4.8 34.4798 2.74286 31.9106 2.74286ZM23.0395 10.0654C23.7965 10.0654 24.4109 10.6798 24.4109 11.4368V20.2523C24.4109 21.0094 23.7965 21.6238 23.0395 21.6238C22.2825 21.6238 21.6681 21.0094 21.6681 20.2523V11.4368C21.6681 10.6798 22.2825 10.0654 23.0395 10.0654Z" fill="#DEFF10"/>
</svg>
