<svg width="17" height="17" viewBox="0 0 17 17" fill="none" xmlns="http://www.w3.org/2000/svg">
<path d="M13.4045 10.5155C13.1864 10.7226 13.0862 11.0222 13.1359 11.316L13.8845 15.3766C13.9476 15.7207 13.7994 16.069 13.5055 16.2679C13.2176 16.4742 12.8344 16.499 12.5203 16.3339L8.7909 14.4274C8.66122 14.3598 8.51723 14.3235 8.36987 14.3193H8.14168C8.06252 14.3309 7.98506 14.3556 7.91432 14.3936L4.18404 16.3092C3.99963 16.3999 3.7908 16.4321 3.58619 16.3999C3.08769 16.3075 2.75508 15.842 2.83676 15.351L3.58619 11.2904C3.63587 10.9941 3.53566 10.6929 3.31757 10.4824L0.27693 7.59385C0.0226308 7.35203 -0.0657845 6.9889 0.0504184 6.66125C0.163253 6.33442 0.451234 6.09591 0.799001 6.04226L4.98399 5.44721C5.30228 5.41502 5.58184 5.2252 5.72499 4.94459L7.56908 1.23894C7.61287 1.1564 7.66929 1.08048 7.73749 1.0161L7.81328 0.958329C7.85285 0.915413 7.89832 0.879924 7.94885 0.851038L8.04063 0.818026L8.18378 0.760254H8.53828C8.85489 0.792441 9.13361 0.978137 9.27929 1.25544L11.1478 4.94459C11.2825 5.21447 11.5444 5.40182 11.8467 5.44721L16.0317 6.04226C16.3853 6.09178 16.6809 6.33112 16.798 6.66125C16.9083 6.9922 16.8131 7.35534 16.5538 7.59385L13.4045 10.5155Z" fill="#FFD66B"/>
</svg>
