<svg width="14" height="14" viewBox="0 0 14 14" fill="none" xmlns="http://www.w3.org/2000/svg">
<path fill-rule="evenodd" clip-rule="evenodd" d="M9.8895 0.833496H4.11016C2.09616 0.833496 0.833496 2.2595 0.833496 4.2775V9.72283C0.833496 11.7408 2.09016 13.1668 4.11016 13.1668H9.88883C11.9095 13.1668 13.1668 11.7408 13.1668 9.72283V4.2775C13.1668 2.2595 11.9095 0.833496 9.8895 0.833496Z" stroke="#DEFF10" stroke-linecap="round" stroke-linejoin="round"/>
<path fill-rule="evenodd" clip-rule="evenodd" d="M6.12785 7.00029C6.12785 7.68163 5.57518 8.23496 4.89318 8.23496C4.21185 8.23496 3.65918 7.68163 3.65918 7.00029C3.65918 6.31896 4.21185 5.76562 4.89318 5.76562C5.57518 5.76562 6.12785 6.31896 6.12785 7.00029Z" stroke="#DEFF10" stroke-linecap="round" stroke-linejoin="round"/>
<path d="M6.12793 7H10.3399V8.23467" stroke="#DEFF10" stroke-linecap="round" stroke-linejoin="round"/>
<path d="M8.45443 8.23467V7" stroke="#DEFF10" stroke-linecap="round" stroke-linejoin="round"/>
</svg>
