<svg width="6" height="6" viewBox="0 0 6 6" fill="none" xmlns="http://www.w3.org/2000/svg">
<path d="M2.4345 5.61276C2.4055 5.58507 2.2815 5.48052 2.1795 5.38313C1.538 4.81214 0.488 3.32262 0.1675 2.543C0.116 2.4246 0.007 2.12527 0 1.96533C0 1.81208 0.036 1.666 0.109 1.52659C0.211 1.35281 0.3715 1.21341 0.561 1.13702C0.6925 1.08785 1.086 1.01146 1.093 1.01146C1.5235 0.935079 2.223 0.893066 2.996 0.893066C3.7325 0.893066 4.4035 0.935079 4.8405 0.99762C4.8475 1.00478 5.3365 1.08117 5.504 1.16471C5.81 1.31796 6 1.6173 6 1.93764V1.96533C5.9925 2.17396 5.8025 2.6127 5.7955 2.6127C5.4745 3.35031 4.476 4.80546 3.8125 5.39029C3.8125 5.39029 3.642 5.555 3.5355 5.62661C3.3825 5.73832 3.193 5.7937 3.0035 5.7937C2.792 5.7937 2.595 5.73116 2.4345 5.61276Z" fill="#F2F5F3"/>
</svg>
