<svg width="12" height="14" viewBox="0 0 12 14" fill="none" xmlns="http://www.w3.org/2000/svg">
<circle cx="5.71905" cy="3.85186" r="3.18535" stroke="#DEFF10" stroke-linecap="round" stroke-linejoin="round"/>
<path fill-rule="evenodd" clip-rule="evenodd" d="M0.666515 11.4672C0.665659 11.2433 0.715739 11.0221 0.812968 10.8204C1.11808 10.2102 1.97849 9.88674 2.69245 9.74029C3.20736 9.63041 3.72937 9.557 4.25462 9.52061C5.22706 9.43519 6.20513 9.43519 7.17757 9.52061C7.70277 9.55742 8.22476 9.63082 8.73974 9.74029C9.4537 9.88674 10.3141 10.1796 10.6192 10.8204C10.8148 11.2316 10.8148 11.709 10.6192 12.1202C10.3141 12.7609 9.4537 13.0538 8.73974 13.1941C8.22544 13.3086 7.70323 13.384 7.17757 13.4199C6.38608 13.487 5.59089 13.4993 4.79771 13.4565C4.61465 13.4565 4.43768 13.4565 4.25462 13.4199C3.73092 13.3845 3.21072 13.309 2.69855 13.1941C1.97849 13.0538 1.12418 12.7609 0.812968 12.1202C0.716236 11.9161 0.666205 11.693 0.666515 11.4672Z" stroke="#DEFF10" stroke-linecap="round" stroke-linejoin="round"/>
</svg>
