<svg width="44" height="44" viewBox="0 0 44 44" fill="none" xmlns="http://www.w3.org/2000/svg">
<g clip-path="url(#clip0_8704_1557)">
<path d="M22 31.9688C18.9198 31.9688 16.4141 29.4629 16.4141 26.3828C16.4141 23.3027 18.9198 20.7969 22 20.7969C25.0802 20.7969 27.5859 23.3027 27.5859 26.3828C27.5859 29.4629 25.0802 31.9688 22 31.9688ZM39.9551 33.7549C39.2533 34.2537 38.3952 34.5469 37.4688 34.5469C36.5423 34.5469 35.6842 34.2537 34.9824 33.7549C32.6571 34.7279 31.0234 37.0247 31.0234 39.7031V42.7109C31.0234 43.4228 31.6006 44 32.3125 44H42.625C43.3369 44 43.9141 43.4228 43.9141 42.7109V39.7031C43.9141 37.0247 42.2804 34.7279 39.9551 33.7549ZM9.01759 33.7549C8.31583 34.2537 7.45774 34.5469 6.53125 34.5469C5.60476 34.5469 4.74667 34.2537 4.04491 33.7549C1.71961 34.7279 0.0859375 37.0247 0.0859375 39.7031V42.7109C0.0859375 43.4228 0.663094 44 1.375 44H11.6875C12.3994 44 12.9766 43.4228 12.9766 42.7109V39.7031C12.9766 37.0247 11.3429 34.7279 9.01759 33.7549Z" fill="url(#paint0_linear_8704_1557)"/>
<path d="M30.9679 10.8777C30.6165 10.5353 30.49 10.023 30.6417 9.55634C30.7933 9.08969 31.1967 8.74955 31.6822 8.679L34.7578 8.23213L36.1333 5.44517C36.3504 5.00517 36.7985 4.72665 37.2892 4.72665C37.7799 4.72665 38.228 5.00526 38.4452 5.44517L39.8206 8.23213L42.8962 8.679C43.3817 8.74955 43.7852 9.08969 43.9367 9.55634C44.0884 10.023 43.9619 10.5353 43.6105 10.8777L41.3851 13.047L41.9104 16.1102C41.9933 16.5938 41.7945 17.0826 41.3975 17.371C41.1731 17.5341 40.907 17.6172 40.6397 17.6172C40.4345 17.6172 40.2287 17.5683 40.04 17.4691L37.2891 16.0229L34.5383 17.4691C34.1037 17.6975 33.5777 17.6593 33.1807 17.371C32.7838 17.0826 32.5849 16.5938 32.6678 16.1102L33.1932 13.047L30.9679 10.8777ZM12.3177 8.679L9.24205 8.23213L7.86662 5.44517C7.64946 5.00517 7.20138 4.72656 6.71067 4.72656C6.21997 4.72656 5.77189 5.00517 5.55473 5.44509L4.1793 8.23204L1.10368 8.67891C0.618137 8.74947 0.21466 9.08961 0.0631527 9.55625C-0.0885269 10.0229 0.037973 10.5352 0.389371 10.8776L2.61481 13.0469L2.08947 16.1101C2.00654 16.5937 2.2054 17.0825 2.60235 17.3709C2.99921 17.6592 3.5254 17.6974 3.9599 17.469L6.71076 16.0228L9.46162 17.469C9.65025 17.5682 9.85616 17.6171 10.0614 17.6171C10.3286 17.6171 10.5947 17.5341 10.8192 17.3709C11.2161 17.0825 11.415 16.5938 11.332 16.1101L10.8067 13.0469L13.0322 10.8776C13.3835 10.5352 13.51 10.0229 13.3584 9.55625C13.2067 9.08969 12.8033 8.74955 12.3177 8.679ZM26.6212 11.3836L26.0959 8.32047L28.3213 6.15115C28.6727 5.80869 28.7992 5.29641 28.6475 4.82977C28.4959 4.36313 28.0925 4.02299 27.607 3.95244L24.5314 3.50556L23.1559 0.718609C22.9388 0.278609 22.4907 0 22 0C21.5093 0 21.0612 0.278609 20.844 0.718523L19.4686 3.50548L16.393 3.95235C15.9074 4.02291 15.504 4.36305 15.3525 4.82969C15.2008 5.29633 15.3273 5.8086 15.6787 6.15106L17.9041 8.32038L17.3788 11.3835C17.2959 11.8671 17.4947 12.3559 17.8917 12.6443C18.2885 12.9326 18.8146 12.9708 19.2492 12.7425L22 11.2963L24.7508 12.7426C24.9395 12.8417 25.1454 12.8906 25.3506 12.8906C25.6179 12.8906 25.8839 12.8076 26.1084 12.6444C26.5053 12.356 26.7041 11.8673 26.6212 11.3836ZM31.0234 39.2734V42.7109C31.0234 43.4228 30.4463 44 29.7344 44H14.2656C13.5537 44 12.9765 43.4228 12.9765 42.7109V39.2734C12.9765 35.4661 15.3467 32.2021 18.689 30.8792C19.6162 31.5637 20.7616 31.9688 22 31.9688C23.2383 31.9688 24.3838 31.5637 25.311 30.8792C28.6533 32.2021 31.0234 35.4661 31.0234 39.2734ZM41.7656 30.25C41.7656 32.6231 39.8418 34.5469 37.4687 34.5469C35.0957 34.5469 33.1719 32.6231 33.1719 30.25C33.1719 27.8769 35.0957 25.9531 37.4687 25.9531C39.8418 25.9531 41.7656 27.8769 41.7656 30.25ZM10.8281 30.25C10.8281 32.6231 8.90431 34.5469 6.53124 34.5469C4.15816 34.5469 2.23436 32.6231 2.23436 30.25C2.23436 27.8769 4.15816 25.9531 6.53124 25.9531C8.90431 25.9531 10.8281 27.8769 10.8281 30.25Z" fill="url(#paint1_linear_8704_1557)"/>
</g>
<defs>
<linearGradient id="paint0_linear_8704_1557" x1="22" y1="44" x2="22" y2="20.7969" gradientUnits="userSpaceOnUse">
<stop stop-color="#FFC8D1"/>
<stop offset="1" stop-color="#FFF6F7"/>
</linearGradient>
<linearGradient id="paint1_linear_8704_1557" x1="22" y1="44" x2="22" y2="0" gradientUnits="userSpaceOnUse">
<stop stop-color="#FD3A84"/>
<stop offset="1" stop-color="#FFA68D"/>
</linearGradient>
<clipPath id="clip0_8704_1557">
<rect width="44" height="44" fill="white"/>
</clipPath>
</defs>
</svg>
