<svg width="33" height="32" viewBox="0 0 33 32" fill="none" xmlns="http://www.w3.org/2000/svg">
<path fill-rule="evenodd" clip-rule="evenodd" d="M31.2426 20.6444C31.9121 20.6947 32.413 21.2799 32.3627 21.9494L32.0547 26.0166C31.8002 29.3723 28.9682 32 25.6045 32H6.80013C3.43642 32 0.604415 29.3723 0.349908 26.0166L0.0419055 21.9494C-0.0083475 21.2799 0.494183 20.6947 1.16368 20.6444C1.83643 20.6201 2.41677 21.0951 2.46864 21.7662L2.77502 25.8318C2.93389 27.9263 4.70085 29.5684 6.80013 29.5684H25.6045C27.7038 29.5684 29.4724 27.9263 29.6296 25.8318L29.9376 21.7662C29.9895 21.0951 30.5844 20.6185 31.2426 20.6444ZM18.2938 0C20.7302 0 22.7486 1.82575 23.0526 4.18077L26.2453 4.18219C29.6431 4.18219 32.4053 6.95259 32.4053 10.3601V15.9349C32.4053 16.3677 32.1752 16.7665 31.8039 16.9837C27.8026 19.327 22.7339 20.6937 17.4178 20.876L17.4184 23.7917C17.4184 24.4629 16.8738 25.0075 16.2026 25.0075C15.5315 25.0075 14.9868 24.4629 14.9868 23.7917L14.9858 20.8765C9.67506 20.6958 4.60594 19.3287 0.601659 16.9837C0.228814 16.7665 0.000244141 16.3677 0.000244141 15.9349V10.3439C0.000244141 6.9461 2.77065 4.18219 6.1765 4.18219L9.35267 4.18077C9.65668 1.82575 11.6751 0 14.1115 0H18.2938ZM26.2453 6.61379H6.1765C4.11127 6.61379 2.43184 8.28673 2.43184 10.3439V15.2265C6.27979 17.3173 11.1309 18.4632 16.1801 18.4654L16.2026 18.4633L16.2206 18.4639L16.9925 18.4559C21.7679 18.3421 26.3233 17.2092 29.9737 15.2265V10.3601C29.9737 8.29321 28.3024 6.61379 26.2453 6.61379ZM18.2938 2.4316H14.1115C13.0199 2.4316 12.0985 3.17449 11.8263 4.18118H20.5789C20.3068 3.17449 19.3853 2.4316 18.2938 2.4316Z" fill="#181818"/>
</svg>
