<svg width="50" height="50" viewBox="0 0 50 50" fill="none" xmlns="http://www.w3.org/2000/svg">
<g clip-path="url(#clip0_4955_1860)">
<path d="M28.8428 10.8879C28.4638 11.0192 28.063 11.0007 27.7325 10.8023L25.0477 9.19194C24.0605 8.60018 22.9095 8.32488 21.7102 8.37449C22.7007 6.77126 24.5483 6.02469 25.9813 6.65773C26.3458 6.81881 26.7011 7.00086 27.046 7.20371L29.363 8.56812C29.7826 8.81518 29.9904 9.29018 29.9625 9.8042C29.9223 9.90057 29.8742 9.99498 29.8168 10.0869C29.573 10.4804 29.2181 10.7578 28.8428 10.8879Z" fill="url(#paint0_linear_4955_1860)"/>
<path d="M33.3233 6.88237L29.3331 5.64561C28.7392 5.46168 28.1395 5.30737 27.5359 5.18247C25.1628 4.69139 22.8053 6.08943 22.0823 8.40247C23.808 8.06041 25.6091 8.15169 27.3139 8.69218L31.9509 10.1635C32.5217 10.3448 33.1142 10.276 33.6076 10.0177C34.0963 9.76169 34.4887 9.31894 34.6672 8.7511C34.6676 8.74972 34.6681 8.74845 34.6685 8.74708C34.7507 8.48806 34.7236 8.20325 34.6007 7.9609C34.3481 7.46227 33.9018 7.06168 33.3233 6.88237Z" fill="url(#paint1_linear_4955_1860)"/>
<path d="M36.0681 3.55406L30.7343 3.13435C29.9406 3.07209 29.1478 3.04837 28.3585 3.06258C25.2553 3.11847 22.7045 5.52984 22.4536 8.62347C24.513 7.70945 26.789 7.31543 29.0713 7.50994L35.2791 8.04033C36.0433 8.10582 36.7642 7.85278 37.3076 7.39082C37.8461 6.93317 38.2115 6.26945 38.2742 5.50974C38.2744 5.50798 38.2745 5.50621 38.2747 5.50445C38.306 5.13935 38.1727 4.77817 37.9337 4.50033C37.4785 3.97092 36.8221 3.61337 36.0681 3.55406Z" fill="url(#paint2_linear_4955_1860)"/>
<path d="M42.9085 37.2652C46.825 37.2652 50 34.0902 50 30.1736C50 26.257 46.825 23.082 42.9085 23.082C38.9919 23.082 35.8169 26.257 35.8169 30.1736C35.8169 34.0902 38.9919 37.2652 42.9085 37.2652Z" fill="url(#paint3_linear_4955_1860)"/>
<path d="M42.9085 35.7346C45.9797 35.7346 48.4694 33.2449 48.4694 30.1737C48.4694 27.1025 45.9797 24.6128 42.9085 24.6128C39.8373 24.6128 37.3477 27.1025 37.3477 30.1737C37.3477 33.2449 39.8373 35.7346 42.9085 35.7346Z" fill="url(#paint4_linear_4955_1860)"/>
<path d="M43.489 29.2158V27.468C44.2672 27.5278 44.4947 27.9109 44.8897 27.9109C45.4165 27.9109 45.632 27.2525 45.632 26.9293C45.632 26.1033 44.2313 25.9116 43.489 25.8878V25.5885C43.489 25.4208 43.2615 25.2651 43.0342 25.2651C42.7709 25.2651 42.5792 25.4208 42.5792 25.5885V25.9236C41.3102 26.1033 40.1849 26.8335 40.1849 28.354C40.1849 29.8863 41.4778 30.4011 42.5792 30.8201V32.7594C41.6933 32.6038 41.2862 31.8975 40.7835 31.8975C40.3285 31.8975 39.9695 32.496 39.9695 32.9031C39.9695 33.6693 41.1426 34.4116 42.5793 34.4594V34.7588C42.5793 34.9264 42.7709 35.0821 43.0343 35.0821C43.2617 35.0821 43.4891 34.9264 43.4891 34.7588V34.4116C44.8898 34.1842 45.8476 33.2862 45.8476 31.8018C45.8475 30.1855 44.5785 29.6228 43.489 29.2158ZM42.6989 28.9285C42.2439 28.737 41.9327 28.5215 41.9327 28.1743C41.9327 27.887 42.1602 27.6116 42.6989 27.504V28.9285ZM43.3694 32.7475V31.1433C43.8004 31.3468 44.0997 31.5983 44.0997 31.9933C44.0997 32.4242 43.7763 32.6517 43.3694 32.7475Z" fill="url(#paint5_linear_4955_1860)"/>
<path d="M35.8169 30.1737C35.8169 34.0903 38.9919 37.2652 42.9085 37.2652C46.825 37.2652 49.9999 34.0902 49.9999 30.1737C49.9999 29.9364 49.9878 29.7021 49.965 29.4709H35.8518C35.8291 29.7021 35.8169 29.9364 35.8169 30.1737Z" fill="url(#paint6_linear_4955_1860)"/>
<path d="M42.9085 37.2652C46.825 37.2652 50 34.0902 50 30.1736C50 26.257 46.825 23.082 42.9085 23.082C38.9919 23.082 35.8169 26.257 35.8169 30.1736C35.8169 34.0902 38.9919 37.2652 42.9085 37.2652Z" fill="url(#paint7_linear_4955_1860)"/>
<path d="M48.1759 6.75966C38.3019 2.67358 28.3024 11.3898 18.4258 7.57878C17.9002 7.37593 17.334 7.75789 17.334 8.32123V24.6719C17.334 25.1765 17.6379 25.6322 18.1042 25.8251C27.9781 29.9112 37.9776 21.195 47.8543 25.006C48.38 25.2089 48.9461 24.8269 48.9461 24.2635V7.91289C48.9461 7.40829 48.6422 6.9526 48.1759 6.75966Z" fill="url(#paint8_linear_4955_1860)"/>
<path d="M47.3106 10.7719C47.1528 10.6141 46.943 10.5278 46.7165 10.5278C46.7155 10.5278 46.7155 10.5278 46.7145 10.5278C45.6724 10.5278 44.8244 9.67976 44.8244 8.6376C44.8244 8.54152 44.8312 8.44544 44.8459 8.35133C44.89 8.06113 44.8126 7.76113 44.6332 7.52878C44.4528 7.29642 44.1812 7.14544 43.8881 7.11603C43.3694 7.06309 42.8283 7.03662 42.2802 7.03662C39.4028 7.03662 36.5185 7.72878 33.4655 8.46113C30.3881 9.19937 27.2067 9.96309 23.9998 9.96309C23.6459 9.96309 23.1096 9.94741 22.7224 9.93368C22.1596 9.91309 21.6577 10.2905 21.5253 10.8278C21.3165 11.6729 20.5616 12.2631 19.6891 12.2631C19.6596 12.2631 19.6293 12.2631 19.5998 12.2611C19.3724 12.2503 19.1479 12.3337 18.9832 12.4905C18.8194 12.6474 18.7283 12.8582 18.7283 13.0856V21.2317C18.7283 21.4513 18.8145 21.6582 18.9694 21.8131C19.1273 21.9709 19.3371 22.0572 19.5645 22.0572H19.5655C20.6077 22.0572 21.4557 22.9052 21.4557 23.9474C21.4557 24.0435 21.4489 24.1396 21.4342 24.2337C21.39 24.5239 21.4675 24.8239 21.6469 25.0562C21.8273 25.2886 22.0989 25.4396 22.392 25.469C22.9106 25.5219 23.4518 25.5484 23.9998 25.5484C26.8763 25.5484 29.7606 24.8562 32.8145 24.1239C35.892 23.3856 39.0734 22.6219 42.2802 22.6219C42.4577 22.6219 42.6802 22.6258 42.9067 22.6317C43.1332 22.6376 43.3636 22.6445 43.5577 22.6513C44.1185 22.6709 44.6224 22.2945 44.7547 21.7572C44.9636 20.9121 45.7185 20.3219 46.591 20.3219C46.6204 20.3219 46.6508 20.3219 46.6802 20.3239C46.9077 20.3337 47.1322 20.2513 47.2969 20.0945C47.4606 19.9376 47.5518 19.7268 47.5518 19.4994V11.3533C47.5518 11.1337 47.4655 10.9268 47.3106 10.7719ZM25.4234 13.3219H23.3449C22.8243 13.3219 22.4028 12.8994 22.4028 12.3788C22.4028 11.8582 22.8243 11.4366 23.3449 11.4366H25.4234C25.944 11.4366 26.3655 11.8582 26.3655 12.3788C26.3655 12.8994 25.944 13.3219 25.4234 13.3219ZM42.9351 21.1484H40.8567C40.3361 21.1484 39.9145 20.7268 39.9145 20.2062C39.9145 19.6856 40.3361 19.2631 40.8567 19.2631H42.9351C43.4557 19.2631 43.8773 19.6856 43.8773 20.2062C43.8773 20.7268 43.4557 21.1484 42.9351 21.1484Z" fill="url(#paint9_linear_4955_1860)"/>
<path d="M17.334 15.7965V24.6719C17.334 25.1765 17.6379 25.6322 18.1042 25.8251C27.9781 29.9112 37.9776 21.1949 47.8543 25.006C48.38 25.2088 48.9461 24.8269 48.9461 24.2634V15.7964L17.334 15.7965Z" fill="url(#paint10_linear_4955_1860)"/>
<path d="M48.176 6.75961C44.8693 5.39118 41.5485 5.45872 38.2229 6.01059V24.3857C41.4406 23.8517 44.654 23.7711 47.8544 25.006C48.3801 25.2088 48.9462 24.8269 48.9462 24.2634V7.91284C48.9462 7.40823 48.6423 6.95255 48.176 6.75961Z" fill="url(#paint11_linear_4955_1860)"/>
<path d="M32.769 23.082C36.354 23.082 39.2602 20.1758 39.2602 16.5908C39.2602 13.0058 36.354 10.0996 32.769 10.0996C29.184 10.0996 26.2778 13.0058 26.2778 16.5908C26.2778 20.1758 29.184 23.082 32.769 23.082Z" fill="url(#paint12_linear_4955_1860)"/>
<path d="M33.3496 15.6331V13.8852C34.1278 13.945 34.3553 14.3282 34.7503 14.3282C35.2771 14.3282 35.4926 13.6697 35.4926 13.3465C35.4926 12.5205 34.0919 12.3288 33.3496 12.305V12.0057C33.3496 11.8381 33.1221 11.6824 32.8948 11.6824C32.6315 11.6824 32.4398 11.8381 32.4398 12.0057V12.3408C31.1708 12.5205 30.0455 13.2507 30.0455 14.7712C30.0455 16.3035 31.3384 16.8184 32.4398 17.2374V19.1767C31.5539 19.021 31.1468 18.3147 30.6441 18.3147C30.1891 18.3147 29.8301 18.9133 29.8301 19.3203C29.8301 20.0865 31.0032 20.8288 32.4399 20.8767V21.176C32.4399 21.3436 32.6315 21.4993 32.8949 21.4993C33.1223 21.4993 33.3497 21.3436 33.3497 21.176V20.8288C34.7504 20.6014 35.7082 19.7035 35.7082 18.219C35.7081 16.6028 34.4391 16.04 33.3496 15.6331ZM32.5595 15.3457C32.1045 15.1542 31.7933 14.9387 31.7933 14.5915C31.7933 14.3042 32.0208 14.0288 32.5595 13.9212V15.3457ZM33.23 19.1647V17.5605C33.661 17.764 33.9603 18.0155 33.9603 18.4105C33.9602 18.8414 33.6369 19.0689 33.23 19.1647Z" fill="url(#paint13_linear_4955_1860)"/>
<path d="M18.1042 25.8251C25.5114 28.8904 32.9894 24.7509 40.4331 24.1004L30.966 14.6333H17.334V24.6718C17.334 25.1764 17.6379 25.6321 18.1042 25.8251Z" fill="url(#paint14_linear_4955_1860)"/>
<path d="M5.57178 8.59692V18.4842C5.57178 19.0241 5.87521 19.5182 6.35678 19.7623L9.59727 21.4053C10.914 22.074 12.4174 22.3145 13.8661 22.029C13.9335 22.0162 14.001 22.0016 14.0684 21.9859C14.0792 21.983 14.0899 21.981 14.1007 21.9781C15.2698 21.7103 18.5827 20.2557 19.8798 19.676C20.26 19.5059 20.6531 19.3652 21.0578 19.2674C23.443 18.6877 25.918 18.6125 28.3236 19.0406C29.5368 19.2557 30.7195 18.6438 31.2582 17.5822C31.3354 17.4298 31.3999 17.2674 31.4487 17.0973C31.8769 15.6115 30.9952 14.0602 29.4967 13.677C26.8867 13.0094 24.2181 12.5832 21.527 12.4043L21.3677 12.33C20.788 12.0592 20.6736 11.457 21.1145 10.9937C23.6404 8.33388 24.5387 7.85486 26.8447 6.84603C29.6042 5.64074 32.6962 5.36123 35.5965 6.16956C35.704 6.19888 35.8116 6.23015 35.9181 6.26241L38.3873 7.10015C39.9132 7.56447 41.532 6.69937 41.9914 5.17152C42.4508 3.65054 41.5886 2.05123 40.0667 1.59966L38.4635 1.06103C31.9522 -0.872398 24.9237 -0.144163 18.9316 3.0876L15.1241 5.17848L12.7322 6.52162C11.9247 6.97515 11.0215 7.19025 10.1222 7.16388H7.00482C6.21335 7.16378 5.57178 7.80545 5.57178 8.59692Z" fill="url(#paint15_linear_4955_1860)"/>
<path d="M20.8518 11.6814C20.8814 11.9444 21.0569 12.1849 21.3675 12.33L21.5268 12.4043C24.2179 12.5832 26.8865 13.0094 29.4965 13.6771C30.995 14.0603 31.8768 15.6116 31.4485 17.0974C31.3996 17.2675 31.3351 17.4297 31.258 17.5823C30.7193 18.6438 29.5366 19.2558 28.3234 19.0407C25.9178 18.6126 23.4427 18.6878 21.0576 19.2675C20.6529 19.3652 20.2599 19.506 19.8796 19.6761C18.5825 20.2558 15.2696 21.7103 14.1005 21.9782C14.0897 21.9811 14.079 21.9831 14.0682 21.986C14.0008 22.0017 13.9333 22.0163 13.8659 22.029C12.4172 22.3144 10.9137 22.074 9.59707 21.4054L6.35678 19.7623C5.87521 19.5182 5.57178 19.024 5.57178 18.4841V11.6814H20.8518Z" fill="url(#paint16_linear_4955_1860)"/>
<path d="M20.2123 2.44385C19.7808 2.64649 19.3533 2.86012 18.9315 3.08767L15.1241 5.17855L12.7322 6.52169C11.9247 6.97522 11.0215 7.19032 10.1222 7.16395H7.00482C6.21335 7.16395 5.57178 7.80551 5.57178 8.59699V18.4842C5.57178 19.0241 5.87521 19.5183 6.35678 19.7624L9.59727 21.4054C10.9139 22.074 12.4174 22.3145 13.8661 22.029C13.9335 22.0163 14.001 22.0017 14.0684 21.986C14.0792 21.9831 14.0899 21.9811 14.1007 21.9782C15.2698 21.7103 18.5827 20.2558 19.8798 19.6761C19.9895 19.6271 20.1006 19.5812 20.2124 19.5374V2.44385H20.2123Z" fill="url(#paint17_linear_4955_1860)"/>
<path d="M9.3459 22.5698H6.87099C6.15344 22.5698 5.57178 21.9881 5.57178 21.2706V7.14028C5.57178 6.42273 6.15344 5.84106 6.87099 5.84106H9.3459C10.0634 5.84106 10.6451 6.42273 10.6451 7.14028V21.2705C10.6451 21.9881 10.0634 22.5698 9.3459 22.5698Z" fill="url(#paint18_linear_4955_1860)"/>
<path d="M9.3459 22.5698H6.87099C6.15344 22.5698 5.57178 21.9881 5.57178 21.2706V7.14028C5.57178 6.42273 6.15344 5.84106 6.87099 5.84106H9.3459C10.0634 5.84106 10.6451 6.42273 10.6451 7.14028V21.2705C10.6451 21.9881 10.0634 22.5698 9.3459 22.5698Z" fill="url(#paint19_linear_4955_1860)"/>
<path d="M5.57178 11.6824V21.2705C5.57178 21.9881 6.15344 22.5697 6.87099 22.5697H9.3459C10.0634 22.5697 10.6451 21.9881 10.6451 21.2705V11.6824H5.57178Z" fill="url(#paint20_linear_4955_1860)"/>
<path d="M26.6878 34.0347C30.6043 34.0347 33.7793 30.8597 33.7793 26.9431C33.7793 23.0266 30.6043 19.8516 26.6878 19.8516C22.7712 19.8516 19.5962 23.0266 19.5962 26.9431C19.5962 30.8597 22.7712 34.0347 26.6878 34.0347Z" fill="url(#paint21_linear_4955_1860)"/>
<path d="M26.6878 32.5041C29.759 32.5041 32.2487 30.0144 32.2487 26.9432C32.2487 23.872 29.759 21.3823 26.6878 21.3823C23.6166 21.3823 21.127 23.872 21.127 26.9432C21.127 30.0144 23.6166 32.5041 26.6878 32.5041Z" fill="url(#paint22_linear_4955_1860)"/>
<path d="M27.2683 25.9854V24.2375C28.0465 24.2973 28.274 24.6805 28.669 24.6805C29.1958 24.6805 29.4113 24.022 29.4113 23.6988C29.4113 22.8728 28.0106 22.6811 27.2683 22.6573V22.358C27.2683 22.1904 27.0408 22.0347 26.8135 22.0347C26.5502 22.0347 26.3585 22.1904 26.3585 22.358V22.6931C25.0895 22.8728 23.9642 23.603 23.9642 25.1235C23.9642 26.6558 25.2571 27.1707 26.3585 27.5897V29.529C25.4726 29.3733 25.0655 28.667 24.5628 28.667C24.1078 28.667 23.7488 29.2656 23.7488 29.6726C23.7488 30.4388 24.9219 31.1811 26.3586 31.229V31.5283C26.3586 31.6959 26.5502 31.8516 26.8136 31.8516C27.041 31.8516 27.2684 31.6959 27.2684 31.5283V31.1811C28.6691 30.9537 29.6269 30.0557 29.6269 28.5713C29.6267 26.9551 28.3577 26.3923 27.2683 25.9854ZM26.4782 25.698C26.0232 25.5065 25.712 25.291 25.712 24.9438C25.712 24.6565 25.9395 24.3811 26.4782 24.2735V25.698ZM27.1487 29.517V27.9127C27.5797 28.1162 27.879 28.3677 27.879 28.7627C27.8789 29.1937 27.5556 29.4212 27.1487 29.517Z" fill="url(#paint23_linear_4955_1860)"/>
<path d="M19.5962 26.9432C19.5962 30.8598 22.7712 34.0347 26.6878 34.0347C30.6043 34.0347 33.7792 30.8597 33.7792 26.9432C33.7792 26.706 33.7671 26.4717 33.7443 26.2405H19.6311C19.6083 26.4717 19.5962 26.706 19.5962 26.9432Z" fill="url(#paint24_linear_4955_1860)"/>
<path d="M33.1399 50C37.0565 50 40.2315 46.825 40.2315 42.9085C40.2315 38.9919 37.0565 35.8169 33.1399 35.8169C29.2233 35.8169 26.0483 38.9919 26.0483 42.9085C26.0483 46.825 29.2233 50 33.1399 50Z" fill="url(#paint25_linear_4955_1860)"/>
<path d="M33.14 48.4694C36.2112 48.4694 38.7009 45.9797 38.7009 42.9085C38.7009 39.8373 36.2112 37.3477 33.14 37.3477C30.0688 37.3477 27.5791 39.8373 27.5791 42.9085C27.5791 45.9797 30.0688 48.4694 33.14 48.4694Z" fill="url(#paint26_linear_4955_1860)"/>
<path d="M33.7204 41.9507V40.2028C34.4987 40.2626 34.7261 40.6458 35.1211 40.6458C35.648 40.6458 35.8635 39.9874 35.8635 39.6641C35.8635 38.8381 34.4628 38.6465 33.7204 38.6226V38.3233C33.7204 38.1557 33.493 38 33.2656 38C33.0023 38 32.8106 38.1557 32.8106 38.3233V38.6584C31.5416 38.8381 30.4163 39.5683 30.4163 41.0888C30.4163 42.6212 31.7093 43.136 32.8106 43.555V45.4943C31.9248 45.3386 31.5177 44.6324 31.0149 44.6324C30.5599 44.6324 30.2009 45.2309 30.2009 45.6379C30.2009 46.4041 31.3741 47.1465 32.8107 47.1943V47.4936C32.8107 47.6613 33.0023 47.817 33.2657 47.817C33.4932 47.817 33.7205 47.6613 33.7205 47.4936V47.1465C35.1212 46.919 36.0791 46.0211 36.0791 44.5367C36.079 42.9204 34.8099 42.3576 33.7204 41.9507ZM32.9304 41.6633C32.4754 41.4719 32.1643 41.2564 32.1643 40.9091C32.1643 40.6219 32.3917 40.3465 32.9304 40.2388V41.6633ZM33.6008 45.4823V43.878C34.0318 44.0816 34.3311 44.333 34.3311 44.728C34.3311 45.159 34.0078 45.3866 33.6008 45.4823Z" fill="url(#paint27_linear_4955_1860)"/>
<path d="M26.0483 42.9083C26.0483 46.8249 29.2233 49.9998 33.1399 49.9998C37.0565 49.9998 40.2314 46.8248 40.2314 42.9083C40.2314 42.6711 40.2192 42.4367 40.1965 42.2056H26.0833C26.0605 42.4368 26.0483 42.6712 26.0483 42.9083Z" fill="url(#paint28_linear_4955_1860)"/>
<path d="M6.39735 23.5132H1.44578C0.647353 23.5132 0 22.866 0 22.0675V6.34325C0 5.54472 0.647353 4.89746 1.44578 4.89746H6.39735C7.19579 4.89746 7.84314 5.54481 7.84314 6.34325V22.0675C7.84314 22.866 7.19579 23.5132 6.39735 23.5132Z" fill="url(#paint29_linear_4955_1860)"/>
<path d="M0 11.3977V22.0675C0 22.866 0.647353 23.5133 1.44578 23.5133H6.39735C7.19588 23.5133 7.84314 22.8659 7.84314 22.0675V11.3977H0Z" fill="url(#paint30_linear_4955_1860)"/>
</g>
<defs>
<linearGradient id="paint0_linear_4955_1860" x1="25.8928" y1="10.9874" x2="25.9906" y2="8.99883" gradientUnits="userSpaceOnUse">
<stop stop-color="#FFDFCF"/>
<stop offset="1" stop-color="#FFA78F"/>
</linearGradient>
<linearGradient id="paint1_linear_4955_1860" x1="28.4437" y1="10.4675" x2="28.5532" y2="5.81636" gradientUnits="userSpaceOnUse">
<stop stop-color="#FFDFCF"/>
<stop offset="1" stop-color="#FFA78F"/>
</linearGradient>
<linearGradient id="paint2_linear_4955_1860" x1="30.7969" y1="8.86746" x2="29.9253" y2="3.52841" gradientUnits="userSpaceOnUse">
<stop stop-color="#FFDFCF"/>
<stop offset="1" stop-color="#FFA78F"/>
</linearGradient>
<linearGradient id="paint3_linear_4955_1860" x1="40.1735" y1="27.4386" x2="51.261" y2="38.5261" gradientUnits="userSpaceOnUse">
<stop stop-color="#FEF48B"/>
<stop offset="0.1462" stop-color="#FDF07E"/>
<stop offset="0.4164" stop-color="#FCE55C"/>
<stop offset="0.778" stop-color="#FBD325"/>
<stop offset="1" stop-color="#FAC600"/>
</linearGradient>
<linearGradient id="paint4_linear_4955_1860" x1="36.0682" y1="23.3333" x2="49.8985" y2="37.1636" gradientUnits="userSpaceOnUse">
<stop stop-color="#FAC600" stop-opacity="0"/>
<stop offset="0.408" stop-color="#EFBD01" stop-opacity="0.408"/>
<stop offset="1" stop-color="#D7AA02"/>
</linearGradient>
<linearGradient id="paint5_linear_4955_1860" x1="20.5857" y1="12.5377" x2="46.419" y2="32.8262" gradientUnits="userSpaceOnUse">
<stop stop-color="#FAC600" stop-opacity="0"/>
<stop offset="0.408" stop-color="#EFBD01" stop-opacity="0.408"/>
<stop offset="1" stop-color="#D7AA02"/>
</linearGradient>
<linearGradient id="paint6_linear_4955_1860" x1="42.9085" y1="31.6891" x2="42.9085" y2="37.3768" gradientUnits="userSpaceOnUse">
<stop stop-color="#FAC600" stop-opacity="0"/>
<stop offset="0.408" stop-color="#EFBD01" stop-opacity="0.408"/>
<stop offset="1" stop-color="#D7AA02"/>
</linearGradient>
<linearGradient id="paint7_linear_4955_1860" x1="42.9085" y1="27.7453" x2="42.9085" y2="24.2418" gradientUnits="userSpaceOnUse">
<stop stop-color="#FAC600" stop-opacity="0"/>
<stop offset="0.408" stop-color="#EFBD01" stop-opacity="0.408"/>
<stop offset="1" stop-color="#D7AA02"/>
</linearGradient>
<linearGradient id="paint8_linear_4955_1860" x1="29.6434" y1="6.87848" x2="36.8957" y2="26.4036" gradientUnits="userSpaceOnUse">
<stop stop-color="#BBEC6C"/>
<stop offset="1" stop-color="#78A91F"/>
</linearGradient>
<linearGradient id="paint9_linear_4955_1860" x1="27.8227" y1="-0.293281" x2="40.4371" y2="39.0532" gradientUnits="userSpaceOnUse">
<stop stop-color="#78A91F" stop-opacity="0"/>
<stop offset="1" stop-color="#026841"/>
</linearGradient>
<linearGradient id="paint10_linear_4955_1860" x1="33.2215" y1="22.9715" x2="33.3522" y2="27.3506" gradientUnits="userSpaceOnUse">
<stop stop-color="#78A91F" stop-opacity="0"/>
<stop offset="1" stop-color="#026841"/>
</linearGradient>
<linearGradient id="paint11_linear_4955_1860" x1="46.1538" y1="15.3514" x2="50.6576" y2="15.3514" gradientUnits="userSpaceOnUse">
<stop stop-color="#78A91F" stop-opacity="0"/>
<stop offset="1" stop-color="#026841"/>
</linearGradient>
<linearGradient id="paint12_linear_4955_1860" x1="28.044" y1="3.46559" x2="36.347" y2="26.5297" gradientUnits="userSpaceOnUse">
<stop stop-color="#78A91F" stop-opacity="0"/>
<stop offset="1" stop-color="#026841"/>
</linearGradient>
<linearGradient id="paint13_linear_4955_1860" x1="10.4463" y1="-1.04508" x2="36.2795" y2="19.2435" gradientUnits="userSpaceOnUse">
<stop stop-color="#78A91F" stop-opacity="0"/>
<stop offset="1" stop-color="#026841"/>
</linearGradient>
<linearGradient id="paint14_linear_4955_1860" x1="28.5804" y1="23.4806" x2="25.9006" y2="14.657" gradientUnits="userSpaceOnUse">
<stop stop-color="#026841" stop-opacity="0"/>
<stop offset="1" stop-color="#026841"/>
</linearGradient>
<linearGradient id="paint15_linear_4955_1860" x1="19.7876" y1="2.33623" x2="28.3905" y2="21.2626" gradientUnits="userSpaceOnUse">
<stop stop-color="#FFDFCF"/>
<stop offset="1" stop-color="#FFA78F"/>
</linearGradient>
<linearGradient id="paint16_linear_4955_1860" x1="18.5643" y1="16.6179" x2="18.5643" y2="22.0955" gradientUnits="userSpaceOnUse">
<stop stop-color="#F89580" stop-opacity="0"/>
<stop offset="0.2859" stop-color="#EE8E79" stop-opacity="0.287"/>
<stop offset="0.7624" stop-color="#D57B65" stop-opacity="0.765"/>
<stop offset="0.9972" stop-color="#C5715A"/>
</linearGradient>
<linearGradient id="paint17_linear_4955_1860" x1="14.2646" y1="12.2956" x2="9.86795" y2="12.2956" gradientUnits="userSpaceOnUse">
<stop stop-color="#F89580" stop-opacity="0"/>
<stop offset="0.2859" stop-color="#EE8E79" stop-opacity="0.287"/>
<stop offset="0.7624" stop-color="#D57B65" stop-opacity="0.765"/>
<stop offset="0.9972" stop-color="#C5715A"/>
</linearGradient>
<linearGradient id="paint18_linear_4955_1860" x1="7.92472" y1="14.2055" x2="10.4444" y2="14.2055" gradientUnits="userSpaceOnUse">
<stop stop-color="#FFFDF1"/>
<stop offset="1" stop-color="#FFF5C6"/>
</linearGradient>
<linearGradient id="paint19_linear_4955_1860" x1="8.85609" y1="14.2055" x2="7.12413" y2="14.2055" gradientUnits="userSpaceOnUse">
<stop stop-color="#FEA613" stop-opacity="0"/>
<stop offset="0.1689" stop-color="#FDA016" stop-opacity="0.169"/>
<stop offset="0.4029" stop-color="#F98E1F" stop-opacity="0.403"/>
<stop offset="0.675" stop-color="#F3712E" stop-opacity="0.675"/>
<stop offset="0.9738" stop-color="#EA4842" stop-opacity="0.974"/>
<stop offset="1" stop-color="#E94444"/>
</linearGradient>
<linearGradient id="paint20_linear_4955_1860" x1="8.10844" y1="19.2485" x2="8.10844" y2="24.5778" gradientUnits="userSpaceOnUse">
<stop stop-color="#FEA613" stop-opacity="0"/>
<stop offset="0.1689" stop-color="#FDA016" stop-opacity="0.169"/>
<stop offset="0.4029" stop-color="#F98E1F" stop-opacity="0.403"/>
<stop offset="0.675" stop-color="#F3712E" stop-opacity="0.675"/>
<stop offset="0.9738" stop-color="#EA4842" stop-opacity="0.974"/>
<stop offset="1" stop-color="#E94444"/>
</linearGradient>
<linearGradient id="paint21_linear_4955_1860" x1="23.9528" y1="24.208" x2="35.0403" y2="35.2956" gradientUnits="userSpaceOnUse">
<stop stop-color="#FEF48B"/>
<stop offset="0.1462" stop-color="#FDF07E"/>
<stop offset="0.4164" stop-color="#FCE55C"/>
<stop offset="0.778" stop-color="#FBD325"/>
<stop offset="1" stop-color="#FAC600"/>
</linearGradient>
<linearGradient id="paint22_linear_4955_1860" x1="19.8475" y1="20.1028" x2="33.6778" y2="33.9331" gradientUnits="userSpaceOnUse">
<stop stop-color="#FAC600" stop-opacity="0"/>
<stop offset="0.408" stop-color="#EFBD01" stop-opacity="0.408"/>
<stop offset="1" stop-color="#D7AA02"/>
</linearGradient>
<linearGradient id="paint23_linear_4955_1860" x1="4.36495" y1="9.30712" x2="30.1982" y2="29.5957" gradientUnits="userSpaceOnUse">
<stop stop-color="#FAC600" stop-opacity="0"/>
<stop offset="0.408" stop-color="#EFBD01" stop-opacity="0.408"/>
<stop offset="1" stop-color="#D7AA02"/>
</linearGradient>
<linearGradient id="paint24_linear_4955_1860" x1="26.6877" y1="28.4586" x2="26.6877" y2="34.1464" gradientUnits="userSpaceOnUse">
<stop stop-color="#FAC600" stop-opacity="0"/>
<stop offset="0.408" stop-color="#EFBD01" stop-opacity="0.408"/>
<stop offset="1" stop-color="#D7AA02"/>
</linearGradient>
<linearGradient id="paint25_linear_4955_1860" x1="30.4049" y1="40.1734" x2="41.4924" y2="51.2609" gradientUnits="userSpaceOnUse">
<stop stop-color="#FEF48B"/>
<stop offset="0.1462" stop-color="#FDF07E"/>
<stop offset="0.4164" stop-color="#FCE55C"/>
<stop offset="0.778" stop-color="#FBD325"/>
<stop offset="1" stop-color="#FAC600"/>
</linearGradient>
<linearGradient id="paint26_linear_4955_1860" x1="26.2996" y1="36.0681" x2="40.1299" y2="49.8984" gradientUnits="userSpaceOnUse">
<stop stop-color="#FAC600" stop-opacity="0"/>
<stop offset="0.408" stop-color="#EFBD01" stop-opacity="0.408"/>
<stop offset="1" stop-color="#D7AA02"/>
</linearGradient>
<linearGradient id="paint27_linear_4955_1860" x1="10.8172" y1="25.2724" x2="36.6504" y2="45.561" gradientUnits="userSpaceOnUse">
<stop stop-color="#FAC600" stop-opacity="0"/>
<stop offset="0.408" stop-color="#EFBD01" stop-opacity="0.408"/>
<stop offset="1" stop-color="#D7AA02"/>
</linearGradient>
<linearGradient id="paint28_linear_4955_1860" x1="33.1399" y1="44.4237" x2="33.1399" y2="50.1115" gradientUnits="userSpaceOnUse">
<stop stop-color="#FAC600" stop-opacity="0"/>
<stop offset="0.408" stop-color="#EFBD01" stop-opacity="0.408"/>
<stop offset="1" stop-color="#D7AA02"/>
</linearGradient>
<linearGradient id="paint29_linear_4955_1860" x1="3.63755" y1="14.2054" x2="7.53294" y2="14.2054" gradientUnits="userSpaceOnUse">
<stop stop-color="#554E56"/>
<stop offset="1" stop-color="#433F43"/>
</linearGradient>
<linearGradient id="paint30_linear_4955_1860" x1="3.92157" y1="19.381" x2="3.92157" y2="22.9466" gradientUnits="userSpaceOnUse">
<stop stop-color="#433F43" stop-opacity="0"/>
<stop offset="1" stop-color="#1A1A1A"/>
</linearGradient>
<clipPath id="clip0_4955_1860">
<rect width="50" height="50" fill="white"/>
</clipPath>
</defs>
</svg>
