<svg width="13" height="14" viewBox="0 0 13 14" fill="none" xmlns="http://www.w3.org/2000/svg">
<path fill-rule="evenodd" clip-rule="evenodd" d="M9.38761 0.579585L9.3883 1.09389C11.3165 1.24201 12.5903 2.52984 12.5924 4.50479L12.6 10.2856C12.6027 12.4389 11.2226 13.7637 9.01025 13.7671L3.60631 13.774C1.40783 13.7767 0.0103716 12.4203 0.00760707 10.2609L4.65482e-06 4.54799C-0.00275986 2.56002 1.22607 1.27562 3.15432 1.10212L3.15362 0.587814C3.15293 0.286087 3.38101 0.0591051 3.6851 0.0591051C3.9892 0.0584194 4.21727 0.284715 4.21796 0.586443L4.21865 1.06646L8.32396 1.06098L8.32327 0.580957C8.32258 0.279229 8.55065 0.0529334 8.85474 0.0522476C9.15193 0.0515619 9.38691 0.277858 9.38761 0.579585ZM1.06508 4.7599L11.5288 4.74619V4.50617C11.4991 3.03182 10.7444 2.2583 9.38975 2.14309L9.39044 2.67112C9.39044 2.96599 9.15615 3.19983 8.85896 3.19983C8.55487 3.20051 8.3261 2.96736 8.3261 2.67249L8.32541 2.11703L4.22009 2.12252L4.22078 2.67729C4.22078 2.97284 3.9934 3.206 3.6893 3.206C3.38521 3.20668 3.15644 2.97422 3.15644 2.67866L3.15575 2.15063C1.80805 2.28298 1.06232 3.05925 1.06439 4.54663L1.06508 4.7599ZM8.56799 7.87656V7.8841C8.5749 8.19955 8.83753 8.43887 9.15614 8.43201C9.46714 8.42447 9.71526 8.1632 9.70835 7.84776C9.69384 7.54603 9.44434 7.29985 9.13402 7.30054C8.8161 7.30739 8.5673 7.56112 8.56799 7.87656ZM9.13888 10.9555C8.82096 10.9487 8.56454 10.6888 8.56385 10.3734C8.55694 10.0579 8.81197 9.79665 9.1299 9.78911H9.13681C9.46164 9.78911 9.72497 10.049 9.72497 10.3713C9.72566 10.6936 9.46303 10.9549 9.13888 10.9555ZM5.72045 7.8876C5.73428 8.20304 5.9976 8.44922 6.31552 8.4355C6.62654 8.4211 6.87465 8.16052 6.86083 7.84508C6.85323 7.5365 6.59751 7.29649 6.2865 7.29718C5.96857 7.31089 5.71976 7.57216 5.72045 7.8876ZM6.31827 10.9248C6.00035 10.9385 5.73771 10.6923 5.7232 10.3769C5.7232 10.0614 5.97132 9.80082 6.28925 9.78642C6.60026 9.78574 6.85667 10.0258 6.86359 10.3337C6.8781 10.6498 6.62929 10.9104 6.31827 10.9248ZM2.87298 7.91156C2.8868 8.22699 3.15012 8.47385 3.46803 8.45945C3.77903 8.44574 4.02715 8.18448 4.01263 7.86904C4.00572 7.56047 3.75001 7.32047 3.43831 7.32115C3.1204 7.33487 2.87229 7.59613 2.87298 7.91156ZM3.47098 10.9281C3.15306 10.9425 2.89042 10.6957 2.87591 10.3802C2.87522 10.0648 3.12403 9.80352 3.44196 9.78981C3.75297 9.78912 4.00938 10.0291 4.01629 10.3377C4.03081 10.6532 3.78269 10.9144 3.47098 10.9281Z" fill="#10D4FF"/>
</svg>
