<svg width="15" height="14" viewBox="0 0 15 14" fill="none" xmlns="http://www.w3.org/2000/svg">
<rect x="3" y="2.5" width="9" height="9" rx="4.5" fill="#F2F5F3"/>
<path d="M8.95286 8.86808L5.63179 5.54702C5.51832 5.43355 5.51832 5.24535 5.63179 5.13188C5.74526 5.01841 5.93345 5.01841 6.04692 5.13188L9.36799 8.45295C9.48146 8.56642 9.48146 8.75461 9.36799 8.86808C9.25452 8.98155 9.06633 8.98155 8.95286 8.86808Z" fill="white"/>
<path d="M5.63201 8.86808C5.51854 8.75461 5.51854 8.56642 5.63201 8.45295L8.95308 5.13188C9.06655 5.01841 9.25474 5.01841 9.36821 5.13188C9.48168 5.24535 9.48168 5.43355 9.36821 5.54702L6.04714 8.86808C5.93367 8.98155 5.74548 8.98155 5.63201 8.86808Z" fill="white"/>
</svg>
