<svg width="18" height="17" viewBox="0 0 18 17" fill="none" xmlns="http://www.w3.org/2000/svg">
<path opacity="0.3" d="M14.2422 10.3358C14.0105 10.5429 13.9041 10.8425 13.9568 11.1363L14.7522 15.1969C14.8193 15.541 14.6619 15.8893 14.3496 16.0882C14.0436 16.2945 13.6366 16.3193 13.3028 16.1542L9.34031 14.2478C9.20253 14.1801 9.04954 14.1438 8.89298 14.1396H8.65052C8.56642 14.1512 8.48411 14.176 8.40896 14.2139L4.44554 16.1295C4.2496 16.2203 4.02772 16.2524 3.81032 16.2203C3.28067 16.1278 2.92727 15.6623 3.01406 15.1713L3.81032 11.1107C3.8631 10.8145 3.75664 10.5132 3.52492 10.3028L0.294238 7.41416C0.0240452 7.17235 -0.0698959 6.80921 0.0535695 6.48156C0.173456 6.15474 0.479436 5.91622 0.848937 5.86257L5.29548 5.26752C5.63367 5.23534 5.9307 5.04551 6.0828 4.76491L8.04214 1.05925C8.08866 0.976717 8.14861 0.900788 8.22107 0.836414L8.30159 0.778642C8.34364 0.735725 8.39196 0.700237 8.44564 0.671351L8.54316 0.638338L8.69525 0.580566H9.07191C9.40831 0.612754 9.70445 0.798449 9.85923 1.07575L11.8445 4.76491C11.9877 5.03478 12.2659 5.22213 12.5871 5.26752L17.0336 5.86257C17.4094 5.91209 17.7234 6.15143 17.8478 6.48156C17.965 6.81251 17.8639 7.17565 17.5883 7.41416L14.2422 10.3358Z" fill="#B3B3BF"/>
</svg>
