<svg width="20" height="20" viewBox="0 0 20 20" fill="none" xmlns="http://www.w3.org/2000/svg">
<path d="M9.11683 18.875C8.71683 18.875 8.32516 18.775 7.9585 18.575C7.22516 18.1667 6.7835 17.425 6.7835 16.5917V12.175C6.7835 11.7583 6.5085 11.1333 6.25016 10.8167L3.1335 7.51667C2.6085 6.99167 2.2085 6.09167 2.2085 5.41667V3.5C2.2085 2.16667 3.21683 1.125 4.50016 1.125H15.5002C16.7668 1.125 17.7918 2.15 17.7918 3.41667V5.25C17.7918 6.125 17.2668 7.11667 16.7752 7.60833L13.1668 10.8C12.8168 11.0917 12.5418 11.7333 12.5418 12.25V15.8333C12.5418 16.575 12.0752 17.4333 11.4918 17.7833L10.3418 18.525C9.96683 18.7583 9.54183 18.875 9.11683 18.875ZM4.50016 2.375C3.91683 2.375 3.4585 2.86667 3.4585 3.5V5.41667C3.4585 5.725 3.7085 6.325 4.02516 6.64167L7.20016 9.98333C7.62516 10.5083 8.04183 11.3833 8.04183 12.1667V16.5833C8.04183 17.125 8.41683 17.3917 8.57516 17.475C8.92516 17.6667 9.35016 17.6667 9.67516 17.4667L10.8335 16.725C11.0668 16.5833 11.3002 16.1333 11.3002 15.8333V12.25C11.3002 11.3583 11.7335 10.375 12.3585 9.85L15.9252 6.69167C16.2085 6.40833 16.5502 5.73333 16.5502 5.24167V3.41667C16.5502 2.84167 16.0835 2.375 15.5085 2.375H4.50016Z" fill="#1C1C24"/>
<path d="M5.00006 8.95839C4.88339 8.95839 4.77506 8.92506 4.66672 8.86672C4.37506 8.68339 4.28339 8.29172 4.46672 8.00006L8.57506 1.41672C8.75839 1.12506 9.14172 1.03339 9.43339 1.21672C9.72506 1.40006 9.81672 1.78339 9.63339 2.07506L5.52506 8.65839C5.40839 8.85006 5.20839 8.95839 5.00006 8.95839Z" fill="#1C1C24"/>
</svg>
