<svg width="32" height="32" viewBox="0 0 32 32" fill="none" xmlns="http://www.w3.org/2000/svg">
<path d="M12.4813 17.799C15.4268 17.799 17.8146 15.4112 17.8146 12.4657C17.8146 9.52014 15.4268 7.13232 12.4813 7.13232C9.53576 7.13232 7.14795 9.52014 7.14795 12.4657C7.14795 15.4112 9.53576 17.799 12.4813 17.799Z" fill="#181818"/>
<path d="M16.0372 19.5352H8.92605C4.9987 19.5352 1.81494 22.719 1.81494 26.6463V29.313C1.81494 29.804 2.21289 30.2019 2.70383 30.2019H22.2594C22.7503 30.2019 23.1483 29.804 23.1483 29.313V26.6463C23.1483 22.719 19.9645 19.5352 16.0372 19.5352ZM14.6244 5.68573C17.4384 6.57727 19.4886 9.16283 19.5854 12.2373C19.5893 12.3616 19.6924 12.4642 19.8165 12.4574C22.6609 12.3018 24.9202 9.89813 24.8496 6.99969C24.7843 4.31724 22.6156 2.02058 19.9403 1.81463C17.4218 1.62073 15.2334 3.17759 14.4754 5.40405C14.4353 5.52177 14.5058 5.64819 14.6244 5.68573Z" fill="#181818"/>
<path d="M23.0735 14.1978H19.5416C19.4431 14.1978 19.3595 14.264 19.3335 14.3589C19.0007 15.5749 18.3515 16.6624 17.4757 17.5203C17.3442 17.6491 17.409 17.8594 17.5902 17.8913C21.1194 18.5132 23.9271 21.2233 24.7078 24.6934C24.7303 24.7932 24.8165 24.8644 24.9187 24.8644H29.2957C29.7846 24.8644 30.1846 24.4733 30.1846 23.9755V21.3089C30.1846 17.3889 27.0023 14.1978 23.0735 14.1978Z" fill="#181818"/>
</svg>
