<svg width="35" height="32" viewBox="0 0 35 32" fill="none" xmlns="http://www.w3.org/2000/svg">
<path fill-rule="evenodd" clip-rule="evenodd" d="M24.4379 0C29.9574 0 34.447 4.48965 34.447 10.0107V21.9893C34.447 27.5087 29.9574 32 24.4379 32H10.011C4.49156 32 0.000244141 27.5087 0.000244141 21.9893V10.0107C0.000244141 4.48965 4.49156 0 10.011 0H24.4379ZM24.4379 2.50352H10.011C5.87183 2.50352 2.50376 5.87159 2.50376 10.0107V21.9893C2.50376 26.1284 5.87183 29.4965 10.011 29.4965H24.4379C28.5771 29.4965 31.9435 26.1284 31.9435 21.9893V21.5219L26.4393 21.5229C23.2731 21.5229 20.6962 18.9476 20.6945 15.7832C20.6945 12.6154 23.2715 10.0385 26.4393 10.0368L31.9435 10.0358V10.0107C31.9435 5.87159 28.5771 2.50352 24.4379 2.50352ZM31.9435 12.5393L26.4393 12.5403C24.6517 12.542 23.198 13.9957 23.198 15.7815C23.198 17.5657 24.6534 19.0194 26.4393 19.0194L31.9435 19.0184V12.5393ZM27.203 14.4263C27.894 14.4263 28.4548 14.9871 28.4548 15.678C28.4548 16.369 27.894 16.9298 27.203 16.9298H26.6823C25.9913 16.9298 25.4305 16.369 25.4305 15.678C25.4305 14.9871 25.9913 14.4263 26.6823 14.4263H27.203ZM17.8337 7.57415C18.5246 7.57415 19.0854 8.13494 19.0854 8.82591C19.0854 9.51688 18.5246 10.0777 17.8337 10.0777H8.82265C8.13168 10.0777 7.57089 9.51688 7.57089 8.82591C7.57089 8.13494 8.13168 7.57415 8.82265 7.57415H17.8337Z" fill="#DEFF10"/>
</svg>
