<svg width="24" height="24" viewBox="0 0 24 24" fill="none" xmlns="http://www.w3.org/2000/svg">
<path d="M17.7103 11.2899L12.7103 6.2899C12.6152 6.19886 12.5031 6.12749 12.3803 6.0799C12.1368 5.97988 11.8638 5.97988 11.6203 6.0799C11.4976 6.12749 11.3854 6.19886 11.2903 6.2899L6.29031 11.2899C6.19707 11.3831 6.12311 11.4938 6.07265 11.6156C6.02219 11.7375 5.99622 11.868 5.99622 11.9999C5.99622 12.2662 6.102 12.5216 6.29031 12.7099C6.47861 12.8982 6.73401 13.004 7.00031 13.004C7.26661 13.004 7.522 12.8982 7.71031 12.7099L11.0003 9.4099V16.9999C11.0003 17.2651 11.1057 17.5195 11.2932 17.707C11.4807 17.8945 11.7351 17.9999 12.0003 17.9999C12.2655 17.9999 12.5199 17.8945 12.7074 17.707C12.895 17.5195 13.0003 17.2651 13.0003 16.9999V9.4099L16.2903 12.7099C16.3833 12.8036 16.4939 12.878 16.6157 12.9288C16.7376 12.9796 16.8683 13.0057 17.0003 13.0057C17.1323 13.0057 17.263 12.9796 17.3849 12.9288C17.5067 12.878 17.6173 12.8036 17.7103 12.7099C17.804 12.6169 17.8784 12.5063 17.9292 12.3845C17.98 12.2626 18.0061 12.1319 18.0061 11.9999C18.0061 11.8679 17.98 11.7372 17.9292 11.6153C17.8784 11.4935 17.804 11.3829 17.7103 11.2899Z" fill="#181818"/>
</svg>
