<svg width="44" height="44" viewBox="0 0 44 44" fill="none" xmlns="http://www.w3.org/2000/svg">
<g clip-path="url(#clip0_8704_1567)">
<path d="M9.19531 38.8438C7.06286 38.8438 5.32812 37.109 5.32812 34.9766V29.6484C5.32812 27.516 7.06286 25.7812 9.19531 25.7812C11.3278 25.7812 13.0625 27.516 13.0625 29.6484V34.9766C13.0625 37.109 11.3278 38.8438 9.19531 38.8438ZM19.5078 38.8438C17.3754 38.8438 15.6406 37.109 15.6406 34.9766V19.3359C15.6406 17.2035 17.3754 15.4688 19.5078 15.4688C21.6403 15.4688 23.375 17.2035 23.375 19.3359V34.9766C23.375 37.109 21.6403 38.8438 19.5078 38.8438ZM29.8203 38.8438C27.6879 38.8438 25.9531 37.109 25.9531 34.9766V24.4922C25.9531 22.3597 27.6879 20.625 29.8203 20.625C31.9528 20.625 33.6875 22.3597 33.6875 24.4922V34.9766C33.6875 37.109 31.9528 38.8438 29.8203 38.8438ZM40.1328 38.8438C38.0004 38.8438 36.2656 37.109 36.2656 34.9766V16.7578C36.2656 14.6254 38.0004 12.8906 40.1328 12.8906C42.2653 12.8906 44 14.6254 44 16.7578V34.9766C44 37.109 42.2653 38.8438 40.1328 38.8438Z" fill="url(#paint0_linear_8704_1567)"/>
<path d="M44 42.7109C44 43.4234 43.4234 44 42.7109 44H1.28906C0.576555 44 0 43.4234 0 42.7109V1.28906C0 0.576555 0.576555 0 1.28906 0C2.00157 0 2.57812 0.576555 2.57812 1.28906V41.4219H42.7109C43.4234 41.4219 44 41.9984 44 42.7109ZM42.7109 0H37.5547C36.8422 0 36.2656 0.576555 36.2656 1.28906C36.2656 2.00157 36.8422 2.57812 37.5547 2.57812H39.5991L29.6995 12.4777L20.2807 5.41303C19.7722 5.03284 19.0496 5.08071 18.5964 5.53386L8.28386 15.8464C7.78035 16.3499 7.78035 17.1657 8.28386 17.6692C8.78737 18.1727 9.60317 18.1727 10.1067 17.6692L19.6286 8.1473L29.0474 15.212C29.5585 15.5922 30.2785 15.5443 30.7318 15.0911L41.4219 4.40095V6.44531C41.4219 7.15782 41.9984 7.73438 42.7109 7.73438C43.4234 7.73438 44 7.15782 44 6.44531V1.28906C44 0.583859 43.4219 0 42.7109 0Z" fill="url(#paint1_linear_8704_1567)"/>
</g>
<defs>
<linearGradient id="paint0_linear_8704_1567" x1="24.6641" y1="38.8438" x2="24.6641" y2="12.8906" gradientUnits="userSpaceOnUse">
<stop stop-color="#5558FF"/>
<stop offset="1" stop-color="#00C0FF"/>
</linearGradient>
<linearGradient id="paint1_linear_8704_1567" x1="22" y1="44" x2="22" y2="0" gradientUnits="userSpaceOnUse">
<stop stop-color="#ADDCFF"/>
<stop offset="0.5028" stop-color="#EAF6FF"/>
<stop offset="1" stop-color="#EAF6FF"/>
</linearGradient>
<clipPath id="clip0_8704_1567">
<rect width="44" height="44" fill="white"/>
</clipPath>
</defs>
</svg>
