<svg width="50" height="50" viewBox="0 0 50 50" fill="none" xmlns="http://www.w3.org/2000/svg">
<g clip-path="url(#clip0_4955_1903)">
<path d="M19.8664 20.4019C20.1925 20.1664 20.4083 19.8267 20.4359 19.4411L20.6609 16.3093C20.744 15.1579 21.1811 14.0545 21.9128 13.0986C20.0259 12.9879 18.3485 14.0745 18.0426 15.6156C17.9648 16.0076 17.9095 16.4043 17.8774 16.8043L17.6624 19.4924C17.6235 19.9793 17.8936 20.4235 18.3317 20.6967C18.4341 20.7193 18.5392 20.7343 18.6478 20.74C19.1112 20.7665 19.5434 20.6351 19.8664 20.4019Z" fill="url(#paint0_linear_4955_1903)"/>
<path d="M14.3297 21.7255L15.6136 17.7373C15.8047 17.1439 16.0236 16.5626 16.2688 15.9951C17.2331 13.7641 19.739 12.6344 22.0544 13.3736C20.7793 14.5931 19.8164 16.1244 19.2779 17.8352L17.814 22.4895C17.6339 23.0626 17.2361 23.5094 16.7397 23.7655C16.248 24.0193 15.6585 24.0863 15.0895 23.9056C15.0882 23.9052 15.0869 23.9047 15.0855 23.9044C14.8255 23.8226 14.6074 23.6362 14.4791 23.3957C14.2152 22.901 14.1436 22.3038 14.3297 21.7255Z" fill="url(#paint1_linear_4955_1903)"/>
<path d="M10.2777 21.9447L13.0064 17.3243C13.4126 16.6368 13.85 15.9724 14.3164 15.3326C16.1503 12.8173 19.5997 12.1127 22.2838 13.6893C20.3468 14.8532 18.712 16.4946 17.5566 18.4802L14.4152 23.8819C14.0286 24.547 13.4054 24.993 12.7132 25.173C12.0273 25.3514 11.2719 25.2688 10.612 24.8826C10.6104 24.8817 10.6089 24.8809 10.6074 24.88C10.2897 24.6953 10.07 24.3778 9.97957 24.0216C9.80731 23.3426 9.89192 22.5978 10.2777 21.9447Z" fill="url(#paint2_linear_4955_1903)"/>
<path d="M16.0893 32.309C20.3397 32.309 23.7853 28.8633 23.7853 24.613C23.7853 20.3626 20.3397 16.917 16.0893 16.917C11.8389 16.917 8.39331 20.3626 8.39331 24.613C8.39331 28.8633 11.8389 32.309 16.0893 32.309Z" fill="url(#paint3_linear_4955_1903)"/>
<path d="M16.0892 30.6179C19.4057 30.6179 22.0942 27.9294 22.0942 24.6129C22.0942 21.2964 19.4057 18.6079 16.0892 18.6079C12.7728 18.6079 10.0842 21.2964 10.0842 24.6129C10.0842 27.9294 12.7728 30.6179 16.0892 30.6179Z" fill="url(#paint4_linear_4955_1903)"/>
<path d="M13.039 27.2385C14.0658 27.2385 14.8982 26.4061 14.8982 25.3794C14.8982 24.3526 14.0658 23.5203 13.039 23.5203C12.0123 23.5203 11.1799 24.3526 11.1799 25.3794C11.1799 26.4061 12.0123 27.2385 13.039 27.2385Z" fill="url(#paint5_linear_4955_1903)"/>
<path d="M19.2455 27.929C19.9496 27.929 20.5203 27.3583 20.5203 26.6542C20.5203 25.9501 19.9496 25.3794 19.2455 25.3794C18.5415 25.3794 17.9707 25.9501 17.9707 26.6542C17.9707 27.3583 18.5415 27.929 19.2455 27.929Z" fill="url(#paint6_linear_4955_1903)"/>
<path d="M17.0679 25.1849C18.5569 25.1849 19.764 23.9778 19.764 22.4888C19.764 20.9998 18.5569 19.7927 17.0679 19.7927C15.5789 19.7927 14.3718 20.9998 14.3718 22.4888C14.3718 23.9778 15.5789 25.1849 17.0679 25.1849Z" fill="url(#paint7_linear_4955_1903)"/>
<path d="M14.469 29.3142H17.2315C17.6802 29.3142 18.0438 28.9506 18.0438 28.502C18.0438 28.0534 17.6802 27.6897 17.2315 27.6897H14.469C14.0205 27.6897 13.6567 28.0533 13.6567 28.502C13.6567 28.9506 14.0204 29.3142 14.469 29.3142Z" fill="#F46700"/>
<path d="M6.19211 20.2096L5.43721 21.7285C4.67809 23.1282 5.20084 24.8738 6.60535 25.6266C8.01476 26.3843 9.77623 25.8499 10.5291 24.4384L11.6861 22.0932C11.7388 21.9948 11.7929 21.8963 11.8484 21.7993C13.3319 19.1691 15.7229 17.1747 18.5347 16.0724C20.8854 15.1525 21.8622 14.8551 25.5399 14.9501C26.1811 14.966 26.527 15.4742 26.308 16.0773L26.2477 16.243C24.466 18.2784 22.8757 20.4732 21.4983 22.7976C20.7073 24.1321 21.1822 25.8576 22.5396 26.6077C22.6949 26.6937 22.8556 26.763 23.0186 26.8163C24.1534 27.1872 25.4262 26.7823 26.134 25.7696C27.5364 23.7599 29.3451 22.058 31.4477 20.7775C31.804 20.5599 32.1825 20.3809 32.5728 20.2319C33.9039 19.7231 37.2848 18.4053 38.3038 17.766C38.3135 17.7605 38.3225 17.7543 38.3322 17.7487C38.3911 17.7119 38.4494 17.6745 38.5062 17.6357C39.736 16.8106 40.6317 15.574 41.0913 14.1659L42.4986 9.86369L34.5164 1.88153C33.6346 0.99967 32.1324 1.35898 31.7451 2.54447C31.2216 4.14516 29.9336 5.37918 28.3128 5.83389L25.6639 6.57771L21.4808 7.79506C14.9395 9.75271 9.43858 14.2206 6.19211 20.2096Z" fill="url(#paint8_linear_4955_1903)"/>
<path d="M25.664 6.57771L28.3129 5.83389C29.9337 5.37908 31.2217 4.14516 31.7452 2.54447C32.1325 1.35898 33.6347 0.99967 34.5165 1.88153L42.4987 9.86369L41.0914 14.1659C40.6318 15.5739 39.7361 16.8107 38.5063 17.6357C38.4495 17.6745 38.3912 17.7119 38.3323 17.7487C38.3226 17.7543 38.3136 17.7605 38.3039 17.766C37.7406 18.1194 36.4556 18.6801 35.1939 19.1968L23.2712 7.27408L25.664 6.57771Z" fill="url(#paint9_linear_4955_1903)"/>
<path d="M31.3149 3.94858L40.9627 13.5964C41.4209 14.0547 42.1639 14.0547 42.622 13.5964L44.5675 11.6509C45.0258 11.1927 45.0258 10.4498 44.5675 9.99162L34.9198 0.343676C34.4615 -0.114559 33.7186 -0.114559 33.2605 0.343676L31.3149 2.28926C30.8566 2.7474 30.8566 3.49034 31.3149 3.94858Z" fill="url(#paint10_linear_4955_1903)"/>
<path d="M33.4384 41.0626C37.6888 41.0626 41.1344 37.617 41.1344 33.3666C41.1344 29.1163 37.6888 25.6707 33.4384 25.6707C29.188 25.6707 25.7424 29.1163 25.7424 33.3666C25.7424 37.617 29.188 41.0626 33.4384 41.0626Z" fill="url(#paint11_linear_4955_1903)"/>
<path d="M33.4384 39.3716C36.7548 39.3716 39.4434 36.683 39.4434 33.3666C39.4434 30.0501 36.7548 27.3616 33.4384 27.3616C30.1219 27.3616 27.4333 30.0501 27.4333 33.3666C27.4333 36.683 30.1219 39.3716 33.4384 39.3716Z" fill="url(#paint12_linear_4955_1903)"/>
<path d="M30.3882 35.9922C31.4149 35.9922 32.2473 35.1598 32.2473 34.133C32.2473 33.1063 31.4149 32.2739 30.3882 32.2739C29.3614 32.2739 28.5291 33.1063 28.5291 34.133C28.5291 35.1598 29.3614 35.9922 30.3882 35.9922Z" fill="url(#paint13_linear_4955_1903)"/>
<path d="M36.5949 36.6827C37.2989 36.6827 37.8697 36.1119 37.8697 35.4079C37.8697 34.7038 37.2989 34.1331 36.5949 34.1331C35.8908 34.1331 35.3201 34.7038 35.3201 35.4079C35.3201 36.1119 35.8908 36.6827 36.5949 36.6827Z" fill="url(#paint14_linear_4955_1903)"/>
<path d="M34.417 33.9385C35.906 33.9385 37.1131 32.7315 37.1131 31.2425C37.1131 29.7535 35.906 28.5464 34.417 28.5464C32.928 28.5464 31.7209 29.7535 31.7209 31.2425C31.7209 32.7315 32.928 33.9385 34.417 33.9385Z" fill="url(#paint15_linear_4955_1903)"/>
<path d="M31.8181 38.0681H34.5807C35.0293 38.0681 35.3929 37.7045 35.3929 37.2559C35.3929 36.8073 35.0293 36.4436 34.5807 36.4436H31.8181C31.3696 36.4436 31.0059 36.8072 31.0059 37.2559C31.0059 37.7045 31.3695 38.0681 31.8181 38.0681Z" fill="#F46700"/>
<path d="M21.7601 50.0002C26.9901 50.0002 31.2299 45.7604 31.2299 40.5303C31.2299 35.3003 26.9901 31.0605 21.7601 31.0605C16.5301 31.0605 12.2903 35.3003 12.2903 40.5303C12.2903 45.7604 16.5301 50.0002 21.7601 50.0002Z" fill="url(#paint16_linear_4955_1903)"/>
<path d="M21.7601 47.9194C25.841 47.9194 29.1491 44.6112 29.1491 40.5304C29.1491 36.4495 25.841 33.1414 21.7601 33.1414C17.6793 33.1414 14.3711 36.4495 14.3711 40.5304C14.3711 44.6112 17.6793 47.9194 21.7601 47.9194Z" fill="url(#paint17_linear_4955_1903)"/>
<path d="M18.0068 43.7606C19.2702 43.7606 20.2943 42.7365 20.2943 41.4731C20.2943 40.2097 19.2702 39.1855 18.0068 39.1855C16.7434 39.1855 15.7192 40.2097 15.7192 41.4731C15.7192 42.7365 16.7434 43.7606 18.0068 43.7606Z" fill="url(#paint18_linear_4955_1903)"/>
<path d="M25.6438 44.6104C26.5102 44.6104 27.2125 43.9081 27.2125 43.0418C27.2125 42.1754 26.5102 41.4731 25.6438 41.4731C24.7775 41.4731 24.0752 42.1754 24.0752 43.0418C24.0752 43.9081 24.7775 44.6104 25.6438 44.6104Z" fill="url(#paint19_linear_4955_1903)"/>
<path d="M22.9643 41.234C24.7965 41.234 26.2818 39.7487 26.2818 37.9164C26.2818 36.0842 24.7965 34.5989 22.9643 34.5989C21.132 34.5989 19.6467 36.0842 19.6467 37.9164C19.6467 39.7487 21.132 41.234 22.9643 41.234Z" fill="url(#paint20_linear_4955_1903)"/>
<path d="M19.7663 46.3152H23.1655C23.7174 46.3152 24.1649 45.8678 24.1649 45.3158C24.1649 44.7639 23.7174 44.3164 23.1655 44.3164H19.7663C19.2143 44.3164 18.7668 44.7639 18.7668 45.3158C18.7668 45.8678 19.2143 46.3152 19.7663 46.3152Z" fill="#F46700"/>
</g>
<defs>
<linearGradient id="paint0_linear_4955_1903" x1="21.7042" y1="17.8507" x2="20.016" y2="16.786" gradientUnits="userSpaceOnUse">
<stop stop-color="#FFEEE6"/>
<stop offset="1" stop-color="#FFB09E"/>
</linearGradient>
<linearGradient id="paint1_linear_4955_1903" x1="20.265" y1="19.7437" x2="16.3833" y2="17.156" gradientUnits="userSpaceOnUse">
<stop stop-color="#FFEEE6"/>
<stop offset="1" stop-color="#FFB09E"/>
</linearGradient>
<linearGradient id="paint2_linear_4955_1903" x1="17.8585" y1="20.6379" x2="13.9769" y2="16.8488" gradientUnits="userSpaceOnUse">
<stop stop-color="#FFEEE6"/>
<stop offset="1" stop-color="#FFB09E"/>
</linearGradient>
<linearGradient id="paint3_linear_4955_1903" x1="11.2159" y1="19.7395" x2="22.067" y2="30.5908" gradientUnits="userSpaceOnUse">
<stop stop-color="#FEDF30"/>
<stop offset="1" stop-color="#FE7701"/>
</linearGradient>
<linearGradient id="paint4_linear_4955_1903" x1="19.8207" y1="28.3445" x2="10.6182" y2="19.1418" gradientUnits="userSpaceOnUse">
<stop stop-color="#FEDF30"/>
<stop offset="1" stop-color="#FE7701"/>
</linearGradient>
<linearGradient id="paint5_linear_4955_1903" x1="12.3485" y1="24.6889" x2="14.6001" y2="26.9405" gradientUnits="userSpaceOnUse">
<stop stop-color="#FEDF30"/>
<stop offset="1" stop-color="#FE7701"/>
</linearGradient>
<linearGradient id="paint6_linear_4955_1903" x1="18.7011" y1="26.1098" x2="21.1033" y2="28.5119" gradientUnits="userSpaceOnUse">
<stop stop-color="#FEDF30"/>
<stop offset="1" stop-color="#FE7701"/>
</linearGradient>
<linearGradient id="paint7_linear_4955_1903" x1="16.0388" y1="21.4597" x2="19.8038" y2="25.2247" gradientUnits="userSpaceOnUse">
<stop stop-color="#FEDF30"/>
<stop offset="1" stop-color="#FE7701"/>
</linearGradient>
<linearGradient id="paint8_linear_4955_1903" x1="16.1209" y1="7.29428" x2="32.0686" y2="27.425" gradientUnits="userSpaceOnUse">
<stop stop-color="#FFEEE6"/>
<stop offset="1" stop-color="#FFB09E"/>
</linearGradient>
<linearGradient id="paint9_linear_4955_1903" x1="33.1322" y1="10.2966" x2="36.1823" y2="7.24646" gradientUnits="userSpaceOnUse">
<stop stop-color="#FFB09E" stop-opacity="0"/>
<stop offset="1" stop-color="#EC806B"/>
</linearGradient>
<linearGradient id="paint10_linear_4955_1903" x1="38.8857" y1="6.02673" x2="35.2278" y2="9.68462" gradientUnits="userSpaceOnUse">
<stop stop-color="#ADE194"/>
<stop offset="1" stop-color="#97D729"/>
</linearGradient>
<linearGradient id="paint11_linear_4955_1903" x1="28.5651" y1="28.4933" x2="39.4163" y2="39.3445" gradientUnits="userSpaceOnUse">
<stop stop-color="#FEDF30"/>
<stop offset="1" stop-color="#FE7701"/>
</linearGradient>
<linearGradient id="paint12_linear_4955_1903" x1="37.1699" y1="37.0981" x2="27.9674" y2="27.8956" gradientUnits="userSpaceOnUse">
<stop stop-color="#FEDF30"/>
<stop offset="1" stop-color="#FE7701"/>
</linearGradient>
<linearGradient id="paint13_linear_4955_1903" x1="29.6977" y1="33.4426" x2="31.9493" y2="35.6942" gradientUnits="userSpaceOnUse">
<stop stop-color="#FEDF30"/>
<stop offset="1" stop-color="#FE7701"/>
</linearGradient>
<linearGradient id="paint14_linear_4955_1903" x1="36.0505" y1="34.8634" x2="38.4526" y2="37.2656" gradientUnits="userSpaceOnUse">
<stop stop-color="#FEDF30"/>
<stop offset="1" stop-color="#FE7701"/>
</linearGradient>
<linearGradient id="paint15_linear_4955_1903" x1="33.3878" y1="30.2133" x2="37.1529" y2="33.9783" gradientUnits="userSpaceOnUse">
<stop stop-color="#FEDF30"/>
<stop offset="1" stop-color="#FE7701"/>
</linearGradient>
<linearGradient id="paint16_linear_4955_1903" x1="15.7634" y1="34.5338" x2="29.1157" y2="47.886" gradientUnits="userSpaceOnUse">
<stop stop-color="#FEDF30"/>
<stop offset="1" stop-color="#FE7701"/>
</linearGradient>
<linearGradient id="paint17_linear_4955_1903" x1="26.3517" y1="45.122" x2="15.0281" y2="33.7984" gradientUnits="userSpaceOnUse">
<stop stop-color="#FEDF30"/>
<stop offset="1" stop-color="#FE7701"/>
</linearGradient>
<linearGradient id="paint18_linear_4955_1903" x1="17.1571" y1="40.6234" x2="19.9277" y2="43.394" gradientUnits="userSpaceOnUse">
<stop stop-color="#FEDF30"/>
<stop offset="1" stop-color="#FE7701"/>
</linearGradient>
<linearGradient id="paint19_linear_4955_1903" x1="24.9739" y1="42.3719" x2="27.9297" y2="45.3277" gradientUnits="userSpaceOnUse">
<stop stop-color="#FEDF30"/>
<stop offset="1" stop-color="#FE7701"/>
</linearGradient>
<linearGradient id="paint20_linear_4955_1903" x1="21.6979" y1="36.6502" x2="26.3307" y2="41.2829" gradientUnits="userSpaceOnUse">
<stop stop-color="#FEDF30"/>
<stop offset="1" stop-color="#FE7701"/>
</linearGradient>
<clipPath id="clip0_4955_1903">
<rect width="50" height="50" fill="white"/>
</clipPath>
</defs>
</svg>
