<svg width="50" height="50" viewBox="0 0 50 50" fill="none" xmlns="http://www.w3.org/2000/svg">
<g clip-path="url(#clip0_4955_1834)">
<path d="M24.833 39.8338C24.833 39.8338 19.5763 42.4095 19.2841 34.9849C19.2719 34.6752 19.5084 34.412 19.8174 34.3872C21.3033 34.2678 25.2835 34.4429 24.833 39.8338Z" fill="url(#paint0_linear_4955_1834)"/>
<path d="M19.8173 34.3872C19.6461 34.4009 19.4973 34.4883 19.4004 34.6157C21.6617 37.392 24.8333 39.8342 24.8333 39.8342C25.2834 34.4429 21.3032 34.2678 19.8173 34.3872Z" fill="url(#paint1_linear_4955_1834)"/>
<path d="M23.9636 47.3969L22.1749 46.5065L23.0694 46.9517L22.1741 46.508C22.1879 46.4802 23.5432 43.6962 24.1784 39.0518C24.7639 34.774 24.8406 27.9911 21.8831 19.9722L23.7576 19.281C26.8742 27.7306 26.7758 34.8965 26.1448 39.4199C25.4555 44.3581 24.0242 47.2748 23.9636 47.3969Z" fill="url(#paint2_linear_4955_1834)"/>
<path d="M23.7576 19.281L21.8831 19.9722C23.3967 24.0765 24.1143 27.8549 24.3771 31.1413L26.4874 33.252C26.3932 29.3125 25.6997 24.5461 23.7576 19.281Z" fill="url(#paint3_linear_4955_1834)"/>
<path d="M40.7863 49.9999H10.5785C9.68471 49.9999 8.94771 49.2812 8.9458 48.3874C8.9458 48.3817 8.9458 48.3764 8.9458 48.3706C8.9458 46.1478 9.81364 44.1275 11.2297 42.631C11.766 42.0829 12.368 41.5988 13.0229 41.1929C14.4767 40.2911 16.1914 39.77 18.0282 39.77C20.7382 39.77 23.1819 40.903 24.9137 42.7215C25.3471 43.1758 25.9922 43.3665 26.5995 43.2036C27.008 43.0934 27.4379 43.035 27.882 43.035C29.2846 43.035 30.5503 43.6213 31.4472 44.5617C31.9183 45.0564 32.6366 45.2262 33.2786 44.9931C33.9744 44.7406 34.7251 44.6017 35.5083 44.6017C38.2946 44.6017 40.673 46.3481 41.6095 48.8044C41.8293 49.3819 41.4035 49.9999 40.7863 49.9999Z" fill="url(#paint4_linear_4955_1834)"/>
<path d="M26.0155 40.7074C26.0155 40.7074 24.2856 32.1602 35.0956 34.5386C35.5465 34.6378 35.8365 35.0776 35.756 35.5324C35.3676 37.7189 33.6152 43.3887 26.0155 40.7074Z" fill="url(#paint5_linear_4955_1834)"/>
<path d="M35.7558 35.5323C35.8005 35.2802 35.731 35.033 35.5834 34.8457C30.7303 37.0575 26.0154 40.7074 26.0154 40.7074C33.615 43.3887 35.3675 37.7189 35.7558 35.5323Z" fill="url(#paint6_linear_4955_1834)"/>
<path d="M33.0611 37.2859C32.9718 37.2805 32.883 37.2687 32.7952 37.258C32.7071 37.2477 32.6194 37.2378 32.5328 37.2229C32.4458 37.21 32.3604 37.1844 32.2757 37.1608C32.191 37.1364 32.1059 37.1264 32.0186 37.1295C31.9316 37.1337 31.8446 37.1421 31.7538 37.1592C31.8526 37.0898 31.9514 37.0208 32.0506 36.951L32.5377 36.6172C32.7002 36.505 32.8673 36.4039 33.0314 36.2941C33.3625 36.0804 33.6993 35.8813 34.051 35.7043L34.0201 35.6185L33.734 35.71L33.5898 35.7562C33.5425 35.773 33.4967 35.7924 33.4502 35.8104C33.266 35.8867 33.0756 35.9561 32.8959 36.0412C32.5297 36.2025 32.1734 36.3814 31.8152 36.5584C31.7473 36.5943 31.679 36.6301 31.6111 36.666C31.6363 36.6073 31.6569 36.547 31.668 36.4825C31.6832 36.3959 31.6974 36.3074 31.7233 36.2235C31.7477 36.1392 31.7763 36.0556 31.8053 35.9721C31.8339 35.8882 31.8622 35.8031 31.8961 35.7203C31.9568 35.5506 32.0331 35.3873 32.1067 35.2168L32.0662 35.1863C31.9266 35.3103 31.7954 35.4457 31.6764 35.5922C31.6161 35.6646 31.5608 35.7413 31.5043 35.818C31.4525 35.8966 31.3998 35.9759 31.3517 36.0579C31.3029 36.1396 31.2487 36.2197 31.198 36.3025C31.1492 36.386 31.1152 36.476 31.1007 36.5718C31.0981 36.5905 31.0954 36.6095 31.0935 36.6286C31.0721 36.8358 30.947 37.0185 30.7647 37.1196L30.7612 37.1215C30.4438 37.2973 30.1314 37.4801 29.8171 37.6613C29.8507 37.5777 29.8751 37.4957 29.8957 37.4137C29.9155 37.3286 29.9224 37.2432 29.9151 37.1554C29.9083 37.0681 29.8995 36.9788 29.9037 36.8911C29.906 36.8029 29.9132 36.7152 29.9205 36.6271C29.9273 36.5386 29.9327 36.4489 29.9449 36.3604C29.9613 36.1812 29.9945 36.0038 30.0231 35.8207L29.9762 35.8012C29.8724 35.9557 29.7789 36.1201 29.7004 36.2914C29.6599 36.3768 29.6256 36.465 29.5901 36.5531C29.5596 36.6423 29.5287 36.7324 29.5028 36.8239C29.4757 36.9151 29.4433 37.0063 29.415 37.099C29.3887 37.192 29.378 37.2878 29.3879 37.3839C29.3929 37.4267 29.3994 37.4694 29.4082 37.5117C29.4513 37.7196 29.3471 37.9306 29.1621 38.034C29.003 38.1232 28.844 38.2117 28.6857 38.3021C28.4846 38.4158 28.2908 38.5398 28.1016 38.6706C28.1287 38.5981 28.1501 38.5264 28.168 38.4547C28.1878 38.3696 28.1947 38.2846 28.1875 38.1968C28.1806 38.1091 28.1718 38.0202 28.176 37.9325C28.1783 37.8444 28.1855 37.7566 28.1928 37.6681C28.1993 37.5796 28.205 37.4904 28.2172 37.4019C28.2336 37.2222 28.2668 37.0452 28.2954 36.8617L28.2485 36.8422C28.1447 36.9971 28.0517 37.1611 27.9727 37.3324C27.9323 37.4179 27.8983 37.506 27.8628 37.5941C27.8319 37.6834 27.801 37.7734 27.7751 37.865C27.748 37.9561 27.7156 38.0473 27.6873 38.14C27.661 38.2331 27.6503 38.3284 27.6603 38.425C27.6713 38.5207 27.6904 38.6172 27.7263 38.7114C27.7671 38.8198 27.7377 38.9411 27.6488 39.0151C27.4184 39.2066 27.0045 39.5556 26.7974 39.7563C26.5109 40.0382 26.2336 40.3323 25.9883 40.6699L26.0417 40.7439C26.4392 40.6203 26.8084 40.4593 27.1685 40.2861C27.5283 40.1118 27.8773 39.9234 28.2168 39.722C28.2229 39.7181 28.229 39.7147 28.2351 39.7113C28.3446 39.6464 28.4808 39.6689 28.5704 39.7593C28.6368 39.8257 28.7104 39.8806 28.7864 39.9287C28.8688 39.9791 28.9595 40.0115 29.0549 40.0279C29.1507 40.0424 29.2468 40.0527 29.341 40.0683C29.4345 40.0844 29.5291 40.0954 29.6229 40.1065C29.7179 40.113 29.8118 40.1202 29.9064 40.121C30.0952 40.1244 30.2832 40.1118 30.4679 40.0851L30.4706 40.0344C30.2928 39.981 30.1188 39.9337 29.9502 39.8703C29.8652 39.8429 29.782 39.8093 29.6992 39.7773C29.6168 39.7452 29.5344 39.7136 29.4543 39.6773C29.3731 39.6434 29.2968 39.5968 29.2209 39.5526C29.1449 39.5079 29.0652 39.4774 28.9798 39.4584C28.8871 39.4393 28.7925 39.4252 28.6906 39.4202C28.8615 39.3035 29.0282 39.181 29.1915 39.0532C29.3208 38.9499 29.497 38.8125 29.6523 38.692C29.8171 38.5642 30.0475 38.5512 30.2192 38.6699C30.3031 38.7278 30.395 38.7732 30.474 38.8232C30.5564 38.8739 30.6472 38.906 30.7425 38.9228C30.8383 38.9373 30.9344 38.9476 31.0283 38.9628C31.1221 38.9789 31.2163 38.9903 31.3102 39.0014C31.4052 39.0075 31.4994 39.0147 31.594 39.0155C31.7824 39.0189 31.9709 39.0063 32.1551 38.9796L32.1582 38.9289C31.9804 38.8755 31.8065 38.8282 31.6378 38.7652C31.5528 38.7378 31.4696 38.7042 31.3872 38.6718C31.3044 38.6397 31.222 38.6081 31.1419 38.5722C31.0611 38.5379 30.9844 38.4913 30.9085 38.4475C30.8326 38.4028 30.7528 38.3719 30.6674 38.3529C30.5041 38.3193 30.3355 38.3002 30.1284 38.325C30.4469 38.0946 30.7643 37.8608 31.0862 37.6349L31.0988 37.6262C31.2915 37.4846 31.549 37.4522 31.7634 37.5586C31.824 37.5888 31.8862 37.6124 31.9487 37.6323C32.0414 37.6609 32.1372 37.6693 32.2337 37.6616C32.3302 37.6517 32.426 37.6376 32.5206 37.6288C32.6152 37.6212 32.7098 37.6082 32.8032 37.5956C32.8967 37.5781 32.9898 37.5613 33.0813 37.5384C33.2648 37.4946 33.4441 37.4354 33.6158 37.3633L33.6059 37.3134C33.4208 37.3069 33.2404 37.305 33.0611 37.2859Z" fill="url(#paint7_linear_4955_1834)"/>
<path d="M39.6919 15.6467C39.6919 24.2882 32.6866 31.2935 24.0452 31.2935C15.4037 31.2935 8.39844 24.2882 8.39844 15.6467C8.39844 7.00531 15.4037 0 24.0452 0C32.6866 0 39.6919 7.00531 39.6919 15.6467Z" fill="url(#paint8_radial_4955_1834)"/>
<path d="M8.39844 15.6469C8.39844 21.2312 11.3247 26.1315 15.7272 28.9003H32.3631C36.7657 26.1315 39.6919 21.2312 39.6919 15.6469C39.6919 10.0621 36.7657 5.16177 32.3631 2.39307H15.7272C11.3247 5.16177 8.39844 10.0621 8.39844 15.6469Z" fill="url(#paint9_linear_4955_1834)"/>
<path d="M8.39844 15.6468C8.39844 19.6305 9.88846 23.2659 12.3402 26.0282H35.7502C38.2019 23.2659 39.6915 19.6305 39.6915 15.6468C39.6915 11.6628 38.2019 8.02736 35.7502 5.26514H12.3402C9.88808 8.02736 8.39844 11.6628 8.39844 15.6468Z" fill="url(#paint10_linear_4955_1834)"/>
<path d="M8.39844 15.6468C8.39844 17.9753 8.9077 20.1844 9.82018 22.1699H38.2702C39.1823 20.1844 39.6919 17.9749 39.6919 15.6468C39.6919 13.3183 39.1823 11.1092 38.2702 9.12329H9.82018C8.9077 11.1092 8.39844 13.3183 8.39844 15.6468Z" fill="url(#paint11_linear_4955_1834)"/>
<path d="M8.39844 15.6469C8.39844 16.9946 8.56934 18.3023 8.88977 19.55H39.2002C39.521 18.3023 39.6919 16.9946 39.6919 15.6469C39.6919 14.2991 39.521 12.9914 39.2002 11.7437H8.88977C8.56934 12.9914 8.39844 14.2991 8.39844 15.6469Z" fill="url(#paint12_linear_4955_1834)"/>
<path d="M22.8027 0.0493164C14.7423 0.682556 8.39844 7.42351 8.39844 15.6469C8.39844 23.8702 14.7423 30.6111 22.8027 31.2444C30.8632 30.6111 37.2066 23.8698 37.2066 15.6469C37.2066 7.42351 30.8632 0.682556 22.8027 0.0493164Z" fill="url(#paint13_radial_4955_1834)"/>
<path d="M23.6127 1.48092C23.0752 1.40805 22.5301 1.40805 21.9926 1.48092C15.0171 2.43001 9.64062 8.41031 9.64062 15.6468C9.64062 22.8829 15.0171 28.8632 21.993 29.8123C22.5301 29.8855 23.0756 29.8855 23.6127 29.8123C30.5887 28.8632 35.9647 22.8829 35.9647 15.6468C35.9647 8.41031 30.5887 2.43001 23.6127 1.48092Z" fill="url(#paint14_radial_4955_1834)"/>
<path d="M33.202 15.6468C33.202 9.34189 28.5176 4.23096 22.7391 4.23096C16.9606 4.23096 12.2761 9.34189 12.2761 15.6468C12.2761 21.9514 16.9606 27.0627 22.7391 27.0627C28.5176 27.0627 33.202 21.9514 33.202 15.6468Z" fill="url(#paint15_radial_4955_1834)"/>
<path d="M25.6118 4.66684C24.3091 4.2621 22.9175 4.2621 21.6151 4.66684C17.2332 6.02906 14.0247 10.4289 14.0247 15.6467C14.0247 20.9667 17.3602 25.436 21.8738 26.7024C23.0102 27.0217 24.2164 27.0217 25.3532 26.7024C29.8667 25.436 33.2019 20.9667 33.2019 15.6467C33.2019 10.4289 29.9934 6.02906 25.6118 4.66684Z" fill="url(#paint16_radial_4955_1834)"/>
<path d="M33.0826 17.3752L26.1566 10.4492C26.0307 10.2299 25.7694 10.0491 25.3723 9.90602C24.9645 9.75992 24.53 9.66035 24.0696 9.60542L23.4619 9.06297C23.4497 8.97752 23.3993 8.8997 23.3062 8.83104C23.1991 8.75208 23.0831 8.7124 22.9591 8.7124C22.8237 8.7124 22.7077 8.75208 22.612 8.83104C22.5158 8.91 22.4682 9.00003 22.4682 9.10188V9.59283C21.5538 9.69431 20.7889 9.9991 20.1736 10.5072C19.5583 11.0153 19.2508 11.76 19.2508 12.7403C19.2508 13.0894 19.2901 13.4079 19.3695 13.6952C19.4481 13.9824 19.5781 14.233 19.759 14.447C19.939 14.6614 20.1114 14.8441 20.2751 14.9964C20.2839 15.0044 20.2938 15.0124 20.3026 15.0208L22.4682 17.1909V20.0237C21.9677 19.9898 21.5275 19.8605 21.1464 19.635C20.7653 19.41 20.4662 19.1986 20.248 19.0014C20.0302 18.8042 19.8539 18.7058 19.7204 18.7058C19.5182 18.7058 19.3386 18.8126 19.1814 19.027C19.0242 19.241 18.946 19.455 18.946 19.669C18.946 20.0195 19.1497 20.3655 19.5549 20.7058L25.5066 26.6575C29.4464 25.4818 32.4588 21.8567 33.0826 17.3752Z" fill="url(#paint17_linear_4955_1834)"/>
<path d="M18.946 19.669C18.946 19.455 19.0246 19.241 19.1814 19.027C19.3386 18.813 19.5182 18.7058 19.7204 18.7058C19.8539 18.7058 20.0302 18.8042 20.248 19.0014C20.4662 19.199 20.7653 19.41 21.1464 19.635C21.5275 19.8605 21.968 19.9898 22.4682 20.0237V16.0526C22.1294 15.9287 21.8696 15.8302 21.6896 15.757C21.5088 15.6838 21.2688 15.5766 20.9697 15.4358C20.6703 15.295 20.4391 15.1486 20.2755 14.9964C20.1118 14.8441 19.9394 14.661 19.759 14.447C19.5781 14.233 19.4484 13.9824 19.3695 13.6952C19.2905 13.4079 19.2512 13.0894 19.2512 12.7403C19.2512 11.7596 19.5587 11.0153 20.174 10.5072C20.7889 9.9991 21.5538 9.69469 22.4682 9.59283V9.10188C22.4682 9.00041 22.5162 8.91 22.6124 8.83104C22.7081 8.75246 22.8241 8.7124 22.9595 8.7124C23.0835 8.7124 23.1991 8.75246 23.3066 8.83104C23.4134 8.91039 23.4672 9.00041 23.4672 9.10188V9.55927C24.1558 9.58215 24.7909 9.69774 25.3723 9.9064C25.9536 10.1154 26.2443 10.4057 26.2443 10.7784C26.2443 10.9818 26.176 11.1935 26.0395 11.4136C25.9029 11.6337 25.7206 11.7436 25.4928 11.7436C25.4032 11.7436 25.1556 11.6478 24.7516 11.4559C24.3469 11.2641 23.9189 11.1511 23.4672 11.1172V14.5489C23.9162 14.7179 24.2897 14.8785 24.5872 15.0307C24.8844 15.1825 25.1991 15.3938 25.5302 15.6643C25.8617 15.9348 26.1112 16.2754 26.2794 16.6866C26.4476 17.0979 26.5323 17.5797 26.5323 18.1313C26.5323 19.1399 26.2573 19.9417 25.7072 20.5364C25.1568 21.1311 24.4102 21.4966 23.4672 21.6324V22.1981C23.4672 22.2981 23.4134 22.3866 23.3066 22.4644C23.1991 22.5418 23.0835 22.5807 22.9595 22.5807C22.8241 22.5807 22.7081 22.5418 22.6124 22.4648C22.5162 22.3869 22.4682 22.2981 22.4682 22.1985V21.6831C21.4863 21.6717 20.6535 21.4474 19.9707 21.0091C19.2875 20.5712 18.946 20.1245 18.946 19.669ZM20.9274 12.5717C20.9274 13.0112 21.064 13.3465 21.3379 13.5769C21.6114 13.8081 22.0222 14.0251 22.5696 14.2277V11.1492C21.4744 11.2847 20.9274 11.7588 20.9274 12.5717ZM23.3658 19.9902C24.3587 19.8097 24.8558 19.252 24.8558 18.317C24.8558 17.8215 24.7257 17.4328 24.4663 17.1513C24.2065 16.8698 23.8399 16.6275 23.3658 16.4246V19.9902Z" fill="url(#paint18_linear_4955_1834)"/>
<path d="M25.307 31.239C25.307 31.239 23.5515 22.7113 10.8242 23.1515C10.3572 23.1675 9.77893 23.6463 9.89718 23.9175C11.0836 26.637 16.011 36.1226 25.307 31.239Z" fill="url(#paint19_linear_4955_1834)"/>
<path d="M9.89728 23.9175C9.84387 23.7947 9.9339 23.6291 10.0914 23.4834C17.4096 23.7691 25.3071 31.2391 25.3071 31.2391C16.0111 36.1226 11.0837 26.637 9.89728 23.9175Z" fill="url(#paint20_linear_4955_1834)"/>
<path d="M9.89712 23.9173C9.81969 23.7392 10.0421 23.4729 10.3358 23.3054C10.3835 23.3798 10.4316 23.4553 10.48 23.5332C15.8236 32.1338 25.3074 31.2388 25.3074 31.2388C16.0109 36.1224 11.0835 26.6368 9.89712 23.9173Z" fill="url(#paint21_linear_4955_1834)"/>
<path d="M25.3071 31.2389C25.3071 31.2389 26.4885 22.6127 39.2167 22.2003C39.6836 22.1851 40.2928 22.6242 40.1928 22.9026C39.1915 25.6954 34.9091 35.4892 25.3071 31.2389Z" fill="url(#paint22_linear_4955_1834)"/>
<path d="M40.1928 22.9028C40.2382 22.7765 40.1371 22.6175 39.9701 22.4824C32.6874 23.2572 25.3071 31.2391 25.3071 31.2391C34.9091 35.4894 39.1915 25.6955 40.1928 22.9028Z" fill="url(#paint23_linear_4955_1834)"/>
<path d="M40.1928 22.9028C40.2585 22.72 40.0185 22.469 39.7145 22.3218C39.6718 22.3988 39.6286 22.4774 39.5855 22.5587C34.8298 31.4973 25.3071 31.239 25.3071 31.239C34.9091 35.4893 39.1915 25.6955 40.1928 22.9028Z" fill="url(#paint24_linear_4955_1834)"/>
</g>
<defs>
<linearGradient id="paint0_linear_4955_1834" x1="20.8182" y1="36.7654" x2="25.1716" y2="38.8997" gradientUnits="userSpaceOnUse">
<stop stop-color="#00E7B2"/>
<stop offset="0.2459" stop-color="#05E5B1"/>
<stop offset="0.5301" stop-color="#13DDAC"/>
<stop offset="0.8322" stop-color="#2AD1A5"/>
<stop offset="1" stop-color="#3AC9A0"/>
</linearGradient>
<linearGradient id="paint1_linear_4955_1834" x1="23.0155" y1="35.7607" x2="20.0469" y2="40.6001" gradientUnits="userSpaceOnUse">
<stop stop-color="#3AC9A0" stop-opacity="0"/>
<stop offset="0.0351" stop-color="#38C69D" stop-opacity="0.035294"/>
<stop offset="0.4167" stop-color="#23AA82" stop-opacity="0.415686"/>
<stop offset="0.7511" stop-color="#169971" stop-opacity="0.752941"/>
<stop offset="1" stop-color="#11936B"/>
</linearGradient>
<linearGradient id="paint2_linear_4955_1834" x1="21.8829" y1="33.3388" x2="26.4992" y2="33.3388" gradientUnits="userSpaceOnUse">
<stop stop-color="#00E7B2"/>
<stop offset="0.2459" stop-color="#05E5B1"/>
<stop offset="0.5301" stop-color="#13DDAC"/>
<stop offset="0.8322" stop-color="#2AD1A5"/>
<stop offset="1" stop-color="#3AC9A0"/>
</linearGradient>
<linearGradient id="paint3_linear_4955_1834" x1="30.411" y1="31.5549" x2="25.6852" y2="26.8291" gradientUnits="userSpaceOnUse">
<stop stop-color="#3AC9A0" stop-opacity="0"/>
<stop offset="0.0351" stop-color="#38C69D" stop-opacity="0.035294"/>
<stop offset="0.4167" stop-color="#23AA82" stop-opacity="0.415686"/>
<stop offset="0.7511" stop-color="#169971" stop-opacity="0.752941"/>
<stop offset="1" stop-color="#11936B"/>
</linearGradient>
<linearGradient id="paint4_linear_4955_1834" x1="24.5322" y1="43.5626" x2="26.196" y2="54.7658" gradientUnits="userSpaceOnUse">
<stop stop-color="#3B395F"/>
<stop offset="0.0633" stop-color="#37355A"/>
<stop offset="0.4033" stop-color="#232543"/>
<stop offset="0.7232" stop-color="#171B35"/>
<stop offset="1" stop-color="#131830"/>
</linearGradient>
<linearGradient id="paint5_linear_4955_1834" x1="30.3151" y1="36.8986" x2="33.7112" y2="42.8257" gradientUnits="userSpaceOnUse">
<stop stop-color="#00E7B2"/>
<stop offset="0.2459" stop-color="#05E5B1"/>
<stop offset="0.5301" stop-color="#13DDAC"/>
<stop offset="0.8322" stop-color="#2AD1A5"/>
<stop offset="1" stop-color="#3AC9A0"/>
</linearGradient>
<linearGradient id="paint6_linear_4955_1834" x1="32.4953" y1="39.931" x2="29.1734" y2="35.6714" gradientUnits="userSpaceOnUse">
<stop stop-color="#3AC9A0" stop-opacity="0"/>
<stop offset="0.0351" stop-color="#38C69D" stop-opacity="0.035294"/>
<stop offset="0.4167" stop-color="#23AA82" stop-opacity="0.415686"/>
<stop offset="0.7511" stop-color="#169971" stop-opacity="0.752941"/>
<stop offset="1" stop-color="#11936B"/>
</linearGradient>
<linearGradient id="paint7_linear_4955_1834" x1="29.3881" y1="36.9327" x2="30.178" y2="38.4554" gradientUnits="userSpaceOnUse">
<stop stop-color="#3B395F"/>
<stop offset="0.0633" stop-color="#37355A"/>
<stop offset="0.4033" stop-color="#232543"/>
<stop offset="0.7232" stop-color="#171B35"/>
<stop offset="1" stop-color="#131830"/>
</linearGradient>
<radialGradient id="paint8_radial_4955_1834" cx="0" cy="0" r="1" gradientUnits="userSpaceOnUse" gradientTransform="translate(23.2854 15.1073) scale(16.2965)">
<stop stop-color="#FFA700"/>
<stop offset="0.3227" stop-color="#FCA300"/>
<stop offset="0.6649" stop-color="#F39600"/>
<stop offset="1" stop-color="#E58200"/>
</radialGradient>
<linearGradient id="paint9_linear_4955_1834" x1="24.0451" y1="13.1747" x2="24.0451" y2="41.1345" gradientUnits="userSpaceOnUse">
<stop stop-color="#E58200" stop-opacity="0"/>
<stop offset="0.0396" stop-color="#E27F04" stop-opacity="0.039216"/>
<stop offset="0.4671" stop-color="#C15D2F" stop-opacity="0.466667"/>
<stop offset="0.8016" stop-color="#AD4949" stop-opacity="0.8"/>
<stop offset="1" stop-color="#A64153"/>
</linearGradient>
<linearGradient id="paint10_linear_4955_1834" x1="24.0451" y1="19.433" x2="24.0451" y2="-8.82153" gradientUnits="userSpaceOnUse">
<stop stop-color="#E58200" stop-opacity="0"/>
<stop offset="0.0396" stop-color="#E27F04" stop-opacity="0.039216"/>
<stop offset="0.4671" stop-color="#C15D2F" stop-opacity="0.466667"/>
<stop offset="0.8016" stop-color="#AD4949" stop-opacity="0.8"/>
<stop offset="1" stop-color="#A64153"/>
</linearGradient>
<linearGradient id="paint11_linear_4955_1834" x1="24.0451" y1="16.1198" x2="24.0451" y2="25.156" gradientUnits="userSpaceOnUse">
<stop stop-color="#E58200" stop-opacity="0"/>
<stop offset="0.0396" stop-color="#E27F04" stop-opacity="0.039216"/>
<stop offset="0.4671" stop-color="#C15D2F" stop-opacity="0.466667"/>
<stop offset="0.8016" stop-color="#AD4949" stop-opacity="0.8"/>
<stop offset="1" stop-color="#A64153"/>
</linearGradient>
<linearGradient id="paint12_linear_4955_1834" x1="24.0451" y1="19.0649" x2="24.0451" y2="3.67754" gradientUnits="userSpaceOnUse">
<stop stop-color="#E58200" stop-opacity="0"/>
<stop offset="0.0396" stop-color="#E27F04" stop-opacity="0.039216"/>
<stop offset="0.4671" stop-color="#C15D2F" stop-opacity="0.466667"/>
<stop offset="0.8016" stop-color="#AD4949" stop-opacity="0.8"/>
<stop offset="1" stop-color="#A64153"/>
</linearGradient>
<radialGradient id="paint13_radial_4955_1834" cx="0" cy="0" r="1" gradientUnits="userSpaceOnUse" gradientTransform="translate(18.2235 11.4261) scale(21.9043)">
<stop stop-color="#FFC738"/>
<stop offset="0.2837" stop-color="#FFC534"/>
<stop offset="0.5391" stop-color="#FFBF29"/>
<stop offset="0.7827" stop-color="#FFB417"/>
<stop offset="1" stop-color="#FFA700"/>
</radialGradient>
<radialGradient id="paint14_radial_4955_1834" cx="0" cy="0" r="1" gradientUnits="userSpaceOnUse" gradientTransform="translate(22.8028 15.6467) scale(13.7014)">
<stop stop-color="#FFFCF8"/>
<stop offset="0.9485" stop-color="#FFFCF8" stop-opacity="0.05098"/>
<stop offset="1" stop-color="#FFFCF8" stop-opacity="0"/>
</radialGradient>
<radialGradient id="paint15_radial_4955_1834" cx="0" cy="0" r="1" gradientUnits="userSpaceOnUse" gradientTransform="translate(23.8103 14.1829) scale(16.3754 17.8673)">
<stop stop-color="#FFA700"/>
<stop offset="0.3227" stop-color="#FCA300"/>
<stop offset="0.6649" stop-color="#F39600"/>
<stop offset="1" stop-color="#E58200"/>
</radialGradient>
<radialGradient id="paint16_radial_4955_1834" cx="0" cy="0" r="1" gradientUnits="userSpaceOnUse" gradientTransform="translate(19.6251 11.7201) scale(16.6876)">
<stop stop-color="#FFC738"/>
<stop offset="0.2837" stop-color="#FFC534"/>
<stop offset="0.5391" stop-color="#FFBF29"/>
<stop offset="0.7827" stop-color="#FFB417"/>
<stop offset="1" stop-color="#FFA700"/>
</radialGradient>
<linearGradient id="paint17_linear_4955_1834" x1="28.7169" y1="18.7145" x2="18.1018" y2="16.2601" gradientUnits="userSpaceOnUse">
<stop stop-color="#FFA700" stop-opacity="0"/>
<stop offset="0.0206" stop-color="#FEA600" stop-opacity="0.019608"/>
<stop offset="0.6348" stop-color="#EC8C00" stop-opacity="0.635294"/>
<stop offset="1" stop-color="#E58200"/>
</linearGradient>
<linearGradient id="paint18_linear_4955_1834" x1="21.9589" y1="15.6466" x2="25.803" y2="15.6466" gradientUnits="userSpaceOnUse">
<stop stop-color="#FFA700"/>
<stop offset="0.3227" stop-color="#FCA300"/>
<stop offset="0.6649" stop-color="#F39600"/>
<stop offset="1" stop-color="#E58200"/>
</linearGradient>
<linearGradient id="paint19_linear_4955_1834" x1="18.1323" y1="26.9909" x2="15.8142" y2="31.8612" gradientUnits="userSpaceOnUse">
<stop stop-color="#00E7B2"/>
<stop offset="0.2459" stop-color="#05E5B1"/>
<stop offset="0.5301" stop-color="#13DDAC"/>
<stop offset="0.8322" stop-color="#2AD1A5"/>
<stop offset="1" stop-color="#3AC9A0"/>
</linearGradient>
<linearGradient id="paint20_linear_4955_1834" x1="15.4882" y1="28.592" x2="24.0011" y2="23.8306" gradientUnits="userSpaceOnUse">
<stop stop-color="#3AC9A0" stop-opacity="0"/>
<stop offset="0.0351" stop-color="#38C69D" stop-opacity="0.035294"/>
<stop offset="0.4167" stop-color="#23AA82" stop-opacity="0.415686"/>
<stop offset="0.7511" stop-color="#169971" stop-opacity="0.752941"/>
<stop offset="1" stop-color="#11936B"/>
</linearGradient>
<linearGradient id="paint21_linear_4955_1834" x1="13.9973" y1="28.5179" x2="25.0517" y2="30.8776" gradientUnits="userSpaceOnUse">
<stop stop-color="#3AC9A0" stop-opacity="0"/>
<stop offset="0.0351" stop-color="#38C69D" stop-opacity="0.035294"/>
<stop offset="0.4167" stop-color="#23AA82" stop-opacity="0.415686"/>
<stop offset="0.7511" stop-color="#169971" stop-opacity="0.752941"/>
<stop offset="1" stop-color="#11936B"/>
</linearGradient>
<linearGradient id="paint22_linear_4955_1834" x1="32.186" y1="26.5239" x2="34.8247" y2="31.2281" gradientUnits="userSpaceOnUse">
<stop stop-color="#00E7B2"/>
<stop offset="0.2459" stop-color="#05E5B1"/>
<stop offset="0.5301" stop-color="#13DDAC"/>
<stop offset="0.8322" stop-color="#2AD1A5"/>
<stop offset="1" stop-color="#3AC9A0"/>
</linearGradient>
<linearGradient id="paint23_linear_4955_1834" x1="34.9314" y1="27.9446" x2="26.1193" y2="23.7631" gradientUnits="userSpaceOnUse">
<stop stop-color="#3AC9A0" stop-opacity="0"/>
<stop offset="0.0351" stop-color="#38C69D" stop-opacity="0.035294"/>
<stop offset="0.4167" stop-color="#23AA82" stop-opacity="0.415686"/>
<stop offset="0.7511" stop-color="#169971" stop-opacity="0.752941"/>
<stop offset="1" stop-color="#11936B"/>
</linearGradient>
<linearGradient id="paint24_linear_4955_1834" x1="36.4139" y1="27.7711" x2="25.5418" y2="30.8648" gradientUnits="userSpaceOnUse">
<stop stop-color="#3AC9A0" stop-opacity="0"/>
<stop offset="0.0351" stop-color="#38C69D" stop-opacity="0.035294"/>
<stop offset="0.4167" stop-color="#23AA82" stop-opacity="0.415686"/>
<stop offset="0.7511" stop-color="#169971" stop-opacity="0.752941"/>
<stop offset="1" stop-color="#11936B"/>
</linearGradient>
<clipPath id="clip0_4955_1834">
<rect width="50" height="50" fill="white"/>
</clipPath>
</defs>
</svg>
