<svg width="21" height="18" viewBox="0 0 21 18" fill="none" xmlns="http://www.w3.org/2000/svg">
<path fill-rule="evenodd" clip-rule="evenodd" d="M15.7168 0.0522461C17.0578 0.0522461 18.3478 0.571713 19.2968 1.50381C20.2468 2.43395 20.7778 3.68851 20.7778 5.00188V12.7449C20.7778 15.4794 18.5078 17.6945 15.7168 17.6945H5.83783C3.04683 17.6945 0.777832 15.4794 0.777832 12.7449V5.00188C0.777832 2.26733 3.03683 0.0522461 5.83783 0.0522461H15.7168ZM17.3078 6.46235L17.3878 6.38393C17.6268 6.0997 17.6268 5.68805 17.3768 5.40381C17.2378 5.25777 17.0468 5.16858 16.8478 5.14898C16.6378 5.1382 16.4378 5.20778 16.2868 5.345L11.7778 8.87345C11.1978 9.34489 10.3668 9.34489 9.77777 8.87345L5.27776 5.345C4.96676 5.11957 4.53676 5.14898 4.27776 5.41361C4.00776 5.67824 3.97776 6.0997 4.20676 6.39374L4.33776 6.52115L8.88777 10.0006C9.44777 10.4319 10.1268 10.6671 10.8378 10.6671C11.5468 10.6671 12.2378 10.4319 12.7968 10.0006L17.3078 6.46235Z" fill="#3A974C"/>
</svg>
