<svg width="14" height="12" viewBox="0 0 14 12" fill="none" xmlns="http://www.w3.org/2000/svg">
<path fill-rule="evenodd" clip-rule="evenodd" d="M0.406637 5.62483C1.63614 2.60529 4.1728 0.666504 6.99998 0.666504C9.82716 0.666504 12.3638 2.60529 13.5933 5.62483C13.6911 5.86494 13.6911 6.13474 13.5933 6.37484C12.3638 9.39438 9.82716 11.3332 6.99998 11.3332C4.1728 11.3332 1.63614 9.39438 0.406637 6.37484C0.308872 6.13474 0.308872 5.86494 0.406637 5.62483ZM6.99998 10.0996C9.27935 10.0996 11.3691 8.52434 12.4333 5.99984C11.3691 3.47534 9.27935 1.90006 6.99998 1.90006C4.72061 1.90006 2.63082 3.47534 1.56671 5.99984C2.63082 8.52434 4.72061 10.0996 6.99998 10.0996ZM6.99998 8.43068C5.6808 8.43068 4.61139 7.34235 4.61139 5.99984C4.61139 4.65732 5.6808 3.569 6.99998 3.569C8.31916 3.569 9.38857 4.65732 9.38857 5.99984C9.38857 7.34235 8.31916 8.43068 6.99998 8.43068ZM6.99998 7.19712C7.64973 7.19712 8.17645 6.66108 8.17645 5.99984C8.17645 5.3386 7.64973 4.80256 6.99998 4.80256C6.35023 4.80256 5.82351 5.3386 5.82351 5.99984C5.82351 6.66108 6.35023 7.19712 6.99998 7.19712Z" fill="#92929D"/>
</svg>
